<svg id="svg-board" width="354.47482" height="361.71823" viewBox="0 0 93.788128 95.704618">
    <g transform="translate(-3.3397471,-112.27414)">
      <path style="fill:#000;stroke-width:0.26652807"
        d="m 35.915084,144.74362 -0.195596,1.98386 c 0.201311,-0.0719 0.627019,-0.0671 1.454652,-0.0476 0.942999,0.0226 1.774639,0.0234 1.848473,0.002 0.07383,-0.0209 1.644486,-0.0281 3.490332,-0.0155 1.84585,0.0126 3.71855,0.002 4.161551,-0.0238 0.443013,-0.0257 1.137718,-0.0343 1.543802,-0.0196 0.99246,0.036 2.220219,-0.0331 3.297881,-0.13384 l -0.02045,-1.92237 c -6.669205,0.0102 -10.677282,0.0756 -11.203569,0.29043 -0.641259,0.26178 -0.856084,0.26684 -0.939181,0.0212 -0.05925,-0.17521 -0.208996,-0.25688 -0.332988,-0.18138 -0.123988,0.0755 -0.537756,-0.003 -0.919252,-0.17415 -0.545478,-0.24496 -0.836635,-0.23645 -1.362363,0.0408 -0.355083,0.18727 -0.71082,0.26094 -0.823291,0.17984 z m 31.919296,2.61586 0.174462,-2.86132 -0.707161,0.0511 c -0.402488,0.0289 -2.282588,0.0427 -4.177739,0.0315 -5.747408,-0.034 -8.395386,-0.019 -11.673853,-0.014 l 0.02019,1.92237 c 0.669632,-0.0634 1.35974,-0.13134 1.6478,-0.21911 0.341299,-0.10405 0.596376,-0.0692 0.596376,0.0816 0,0.16155 1.411619,0.27094 3.64452,0.28164 3.740942,0.018 5.895166,-0.14627 5.856598,-0.44597 -0.03413,-0.26552 -0.0044,-0.40243 0.117515,-0.41341 0.121926,-0.011 0.336083,0.10424 0.671443,0.34261 0.411383,0.29241 1.156858,0.528 1.6566,0.524 1.610387,-0.0129 2.047831,0.0107 2.17325,0.71882 z m 1.847,-2.51768 -0.141236,2.43035 c 0.132657,-0.20063 0.40614,-0.38407 0.813796,-0.52969 0.684249,-0.24439 12.407365,-0.18792 12.656548,0.061 0.0782,0.0781 0.33046,-0.0239 0.560812,-0.22634 0.329276,-0.28935 0.758366,-0.31562 2.007851,-0.12351 1.993762,0.30655 3.666197,0.36514 4.029151,0.14108 0.269719,-0.1665 5.675108,0.0323 5.858517,0.21549 0.04986,0.0498 0.430253,-0.0275 0.845358,-0.17208 0.598683,-0.20846 0.743864,-0.40802 0.701013,-0.96532 -0.07659,-0.99532 -0.923562,-1.34467 -2.612637,-1.07797 -0.753498,0.119 -1.496745,0.13016 -1.651912,0.0248 -0.155167,-0.10534 -1.453709,-0.15282 -2.8858,-0.10542 -2.125492,0.0703 -2.577598,0.15532 -2.458983,0.46406 0.182927,0.47617 0.03044,0.47657 -0.708258,5.2e-4 -0.604139,-0.38894 -3.417933,-0.52511 -8.26835,-0.39895 -1.311185,0.0341 -3.45675,0.0241 -4.767934,-0.0222 -1.311185,-0.0463 -2.744386,-10e-4 -3.185349,0.10077 z m 12.041932,0.5147 c 0.154285,0 0.280405,0.11906 0.280405,0.26458 0,0.14552 -0.05265,0.26459 -0.116923,0.26459 -0.06424,0 -0.190402,-0.11907 -0.280405,-0.26459 -0.09003,-0.14552 -0.03736,-0.26458 0.116923,-0.26458 z m -47.401928,1.97094 0.04625,-3.46439 c -0.07228,0.43731 -0.185652,0.62187 -0.395978,0.73381 -0.293104,0.15604 -0.877493,0.21557 -1.298622,0.13177 -0.424699,-0.0845 -0.765453,-0.0377 -0.765453,0.10542 0,0.14188 -0.186548,0.25787 -0.414684,0.25787 -0.228142,0 -0.342941,-0.11559 -0.255153,-0.25684 0.319247,-0.51367 -1.670837,-0.67084 -2.440827,-0.19275 -0.17416,0.1081 -2.449006,0.11596 -5.055215,0.0171 -2.606208,-0.0989 -5.097413,-0.17602 -5.536419,-0.17002 -0.439005,0.005 -2.354667,0.0321 -4.257025,0.0584 -1.902357,0.0262 -4.5363913,0.0422 -5.8534088,0.0362 -2.9580493,-0.0145 -4.7089063,0.2094 -4.4825556,0.57361 0.092609,0.14901 0.1813027,0.5228 0.1969497,0.83044 0.023831,0.46848 0.2446693,0.58444 1.3589014,0.71571 0.7316758,0.0862 1.5906414,0.0417 1.9086977,-0.0992 0.3363155,-0.14893 1.004282,-0.16632 1.5963842,-0.0419 0.5599552,0.11803 1.7363804,0.17255 2.6143904,0.12196 0.878012,-0.0506 2.015436,-0.0817 2.527609,-0.0687 0.512173,0.013 1.529869,0.0152 2.261544,0.006 0.731677,-0.009 2.288151,-0.008 3.458833,0.003 1.170682,0.0105 4.044174,0.01 6.385538,-0.002 3.747117,-0.0188 6.310762,0.03 7.947622,0.15141 0.247402,0.0183 0.368587,0.21076 0.452623,0.55294 z" />
      <path style="fill:#000;stroke-width:0.26601556"
        d="m 35.575744,176.31895 -0.0079,2.91972 c 0.03381,-0.0605 0.07517,-0.11947 0.154621,-0.14883 0.1932,-0.0714 4.08204,-0.17551 8.642157,-0.23151 3.58571,-0.044 6.247868,-0.13503 7.579647,-0.22376 l -0.01828,-1.66088 c -8.620246,0.006 -11.178033,0.0797 -11.672446,0.35812 -0.448978,0.25286 -0.689115,0.2729 -0.816994,0.0682 -0.24929,-0.399 -2.692839,-0.71602 -2.692839,-0.34933 0,0.15463 0.210621,0.33596 0.468048,0.40256 v -5.2e-4 c 0.435545,0.1126 0.434827,0.12333 -0.01202,0.15193 -0.264112,0.0169 -0.77562,-0.2619 -1.136685,-0.61908 -0.264717,-0.26187 -0.383791,-0.47026 -0.487377,-0.66663 z m -1.37153,3.12384 0.05689,-2.46703 -1.230378,0.0791 c -0.691785,0.0444 -1.25779,0.19319 -1.25779,0.33073 0,0.13755 -0.1916,0.25012 -0.425642,0.25012 -0.269405,0 -0.369592,-0.14557 -0.273073,-0.39688 0.12235,-0.31857 -0.09677,-0.39687 -1.110393,-0.39687 -0.694496,0 -1.382984,0.12045 -1.530346,0.26768 -0.174658,0.17454 -1.322621,0.19365 -3.297045,0.0553 -3.046026,-0.21343 -21.4096998,-0.16912 -21.6311992,0.0522 -0.065263,0.0652 -0.020665,0.27505 0.099299,0.46664 0.1199633,0.19158 0.2211716,0.52741 0.2249747,0.74569 0.00612,0.34753 1.8817421,0.40248 15.0727955,0.44338 11.266448,0.0349 15.114756,0.12567 15.259498,0.35967 0.01982,0.032 0.02664,0.1473 0.04241,0.21032 z m -4.020067,-2.07171 c 0.308466,0 0.48721,0.11907 0.397197,0.26459 -0.09001,0.14552 -0.268749,0.26458 -0.397197,0.26458 -0.128448,0 -0.307184,-0.11906 -0.397197,-0.26458 -0.09001,-0.14552 0.08873,-0.26459 0.397197,-0.26459 z m 37.643493,2.15078 0.135211,-3.09232 c -0.0962,0.32249 -0.338836,0.41457 -1.052145,0.57257 -0.619989,0.13736 -1.604688,0.18547 -2.188207,0.10697 -0.58352,-0.0785 -6.193288,-0.14101 -12.466157,-0.13901 -0.226406,8e-5 -0.241793,0.003 -0.460022,0.004 l 0.01813,1.66088 c 0.358911,-0.0241 1.118419,-0.0486 1.173365,-0.0713 0.257156,-0.10616 0.615229,-0.0758 0.795712,0.0672 0.357103,0.28288 6.529606,0.39712 8.348764,0.15451 0.618485,-0.0825 1.059195,-0.25577 0.979097,-0.38499 -0.207793,-0.33537 0.350479,-0.29038 1.030385,0.0832 0.318635,0.17509 1.213125,0.34127 1.987727,0.36897 0.774588,0.0276 1.489271,0.13064 1.588316,0.22944 0.0427,0.0426 0.07433,0.27224 0.109823,0.44029 z m 1.521466,-2.77709 0.06624,2.73574 c 0.255001,-0.58113 1.828761,-0.63754 7.374611,-0.59634 4.276754,0.0318 6.760563,-0.0483 6.974078,-0.22531 0.182394,-0.1512 0.477058,-0.18504 0.654614,-0.0755 0.376841,0.23253 11.533329,0.43311 12.219258,0.21963 0.263132,-0.0819 0.463662,-0.40452 0.463662,-0.74569 0,-0.86645 -0.989664,-1.23648 -2.618968,-0.97927 -0.730008,0.1152 -1.441298,0.13891 -1.580902,0.0527 -0.503206,-0.31061 -5.474457,-0.13044 -5.404561,0.19585 0.08932,0.417 -0.655186,0.39665 -0.794849,-0.0217 -0.08473,-0.25381 -1.892261,-0.33515 -7.772036,-0.34985 -4.213799,-0.0106 -7.980648,0.0682 -8.370758,0.17467 -0.52172,0.1424 -0.822476,0.0685 -1.137421,-0.27906 -0.04773,-0.0527 -0.03719,-0.0634 -0.07296,-0.10593 z" />
      <path style="fill:none;stroke-linecap:butt;stroke-linejoin:miter;stroke-miterlimit:4;stroke-opacity:1"
        d="M 97.019005,145.59182 3.3406902,145.6586" id="svg-board-line1" class="svg-board-line" />
      <path style="fill:none;stroke-linecap:butt;stroke-linejoin:miter;stroke-miterlimit:4;stroke-opacity:1"
        d="M 97.126164,178.06505 3.4075157,177.93144 v 0 0" id="svg-board-line2" class="svg-board-line" />
      <path style="fill:#000;stroke-width:0.99999994"
        d="m 260.2793,427.55469 c -0.11065,0.12067 -0.0696,0.35833 0.13867,0.69531 0.40131,0.64936 0.0566,1.12891 -0.8125,1.12891 -0.86253,0 -1.88175,1.39602 -2.37305,3.25 -0.84816,3.19948 -0.82314,29.90483 0.0293,31.45507 0.24041,0.43737 0.16463,3.49495 -0.16797,6.79493 -0.33271,3.30002 -0.52569,12.45106 -0.42969,20.33398 0.1465,12.03825 0.45067,14.63951 1.90821,16.25 1.65747,1.8313 1.64361,1.91602 -0.33985,1.91602 -1.94457,0 -2.04599,0.4293 -1.5957,6.75 0.26434,3.71251 0.47032,7.425 0.45898,8.25 -0.0106,0.82499 -0.0318,6.05624 -0.0469,11.625 l -0.0274,10.125 -0.0918,0.006 -0.65821,10.81445 c 0.178,1.00679 0.22852,2.31704 0.22852,4.21484 0,4.49216 0.42805,6.56092 1.5,7.25 1.14414,0.73554 1.20914,1.15169 0.27344,1.75782 -0.73898,0.47866 -1.19732,2.96351 -1.15235,6.25 0.0412,3.00044 -0.0142,5.67992 -0.12304,5.95507 -0.10848,0.275 -0.26489,17.11896 -0.34766,37.42969 -0.11992,29.43084 0.11871,37.19691 1.17188,38.25 0.78395,0.7841 0.88579,1.32031 0.25,1.32031 -0.59698,0 -1.07227,1.9185 -1.07227,4.33203 0,1.5403 -0.0794,2.42638 -0.2832,3.11133 l -0.50977,11.6875 c 0.76162,3.61443 1.09139,13.93135 0.69336,25.9375 -0.13795,4.16149 0.0781,8.09898 0.48047,8.75 0.40252,0.65103 0.47499,1.6002 0.16016,2.10938 -0.31488,0.50918 -0.54574,5.34667 -0.51172,10.75 0.034,5.40332 0.0382,10.72422 0.0117,11.82422 -0.0283,1.09999 0.0238,4.02501 0.11523,6.5 0.093,2.47502 0.1069,6.74997 0.0332,9.5 -0.0741,2.74998 -0.0847,8.14998 -0.0234,12 0.32904,20.64272 0.30235,20.51752 4.20312,18.74023 2.32524,-1.05951 2.37116,-1.33131 2.04688,-11.89648 -0.19416,-6.32928 -0.76393,-10.9584 -1.375,-11.16211 -1.48113,-0.49369 -1.29828,-2.18164 0.23632,-2.18164 1.02082,0 1.25641,-7.76256 1.15625,-38.25 -0.0692,-21.0375 -0.43202,-39.19756 -0.80468,-40.35743 -0.32443,-1.00967 -0.40492,-1.78557 -0.12696,-2.41992 l -0.25,-10.33984 c -0.81459,-0.97064 -0.83543,-1.42894 -0.043,-1.79492 0.11195,-0.0517 0.0676,-0.11496 0.21094,-0.16992 1.27945,-0.49089 1.42383,-2.59698 0.95313,-13.87305 -0.30539,-7.31214 -0.52829,-14.19493 -0.49805,-15.29492 0.7076,-24.70723 0.68239,-40.22827 -0.0664,-41.17383 -0.57123,-0.72359 -0.56562,-2.6409 0.0156,-5 1.07724,-4.37246 0.87298,-22.93829 -0.28125,-25.58789 -0.45045,-1.03401 -0.25725,-2.37761 0.4668,-3.25 0.88214,-1.06307 0.92939,-1.85401 0.16796,-2.77149 -0.69697,-0.83979 -0.74805,-1.6929 -0.23046,-2.47656 l 0.5332,-9.18555 -0.0352,0.008 -0.20312,-55.28125 c -0.22522,-61.60868 -0.30507,-63.96826 -2.19336,-64.59766 -0.39655,-0.13217 -0.65889,-0.12848 -0.76953,-0.008 z m -0.98633,196.19726 c 0.18125,-0.0799 0.43203,-0.0429 0.70703,0.12696 0.55,0.33993 1,0.81594 1,1.05859 0,0.24257 -0.45,0.44141 -1,0.44141 -0.55,0 -1,-0.47809 -1,-1.06055 0,-0.29118 0.11172,-0.48648 0.29297,-0.56641 z m 0.64844,-37.37304 c 0.51753,0 1.21881,0.45 1.55859,1 0.33989,0.54999 -0.0839,1 -0.94141,1 -0.85746,0 -1.55859,-0.45001 -1.55859,-1 0,-0.55 0.42384,-1 0.94141,-1 z"
        transform="scale(0.26458333)" />
      <path style="fill:none;stroke-linecap:butt;stroke-linejoin:miter;stroke-miterlimit:4;stroke-opacity:1"
        d="m 68.755087,207.97727 -0.06681,-48.0364 0.177234,-47.21799 v 0" id="svg-board-line3"
        class="svg-board-line" />
      <path style="fill:#000;stroke-width:0.99999994"
        d="m 133,584.37891 c -0.55,0 -1,0.45 -1,1 0,0.54999 0.45,1 1,1 0.55,0 1,-0.45001 1,-1 0,-0.55 -0.45,-1 -1,-1 z m -0.0586,68 c 0.58246,0 1.05859,0.45 1.05859,1 0,0.54999 -0.19887,1 -0.44141,1 -0.24254,0 -0.71866,-0.45001 -1.05859,-1 -0.33992,-0.55 -0.14105,-1 0.44141,-1 z m 0.29687,-228.01563 c -0.14442,0.0304 -0.23828,0.2886 -0.23828,0.84961 0,0.64169 -0.6161,1.16797 -1.36914,1.16797 -2.05845,0 -2.23455,3.38571 -2.1582,41.7207 0.0528,26.42623 0.3776,35.528 1.29882,36.44922 1.63649,1.6365 1.56257,2.89471 -0.13281,2.24414 -1.12525,-0.43188 -1.31964,2.87451 -1.11914,19.0586 0.13589,10.97006 0.11216,15.53483 -0.27344,17.88086 l -0.17382,13.09374 c 0.2076,0.85008 0.38547,1.75395 0.49023,3.55079 0.17639,3.02498 0.36579,6.175 0.42188,7 0.0561,0.82499 -0.10671,21.15319 -0.36133,45.17382 -0.4223,39.83498 -0.31755,43.72821 1.17968,44.30274 1.41227,0.54198 1.43574,0.7572 0.17383,1.53711 -0.95724,0.59161 -1.4677,2.56938 -1.4707,5.69531 l -0.006,4.79102 -0.10352,0.006 -0.21484,9.32421 c 0.26024,1.04108 0.40684,2.82986 0.27344,4.8086 -0.16392,2.43144 0.10785,5.8342 0.60351,7.5625 0.49567,1.72826 0.54667,3.62788 0.11524,4.2207 -0.65507,0.90006 -0.79681,53.0515 -0.14844,54.57813 0.11675,0.27499 0.0987,0.95 -0.0391,1.5 -0.48804,1.94796 0.0488,32.74804 0.58594,33.61718 h -0.006 c 0.6938,1.12256 1.13837,1.10854 3.41406,-0.10937 1.65446,-0.88547 1.82596,-2.14397 1.59961,-11.69336 -0.16737,-7.06129 -0.6504,-10.83517 -1.41992,-11.0918 -1.65242,-0.55083 -1.45144,-3.22265 0.24218,-3.22265 1.18934,0 1.37336,-6.07681 1.18555,-39.29493 -0.12218,-21.61273 -0.559,-39.84167 -0.9707,-40.50781 -0.25107,-0.40624 -0.20111,-0.79989 -0.0137,-1.13867 l 0.0293,-11.03516 c -0.60296,-1.15544 -0.69834,-2.02539 0.33985,-2.02539 1.06761,0 0.65057,-26.18386 -0.44532,-27.95703 -0.35423,-0.5732 -0.28521,-1.60547 0.1543,-2.29297 1.12851,-1.76523 1.38095,-38.97021 0.27344,-40.30468 -0.52187,-0.6288 -0.55581,-2.35331 -0.0781,-4.02344 1.14304,-3.997 1.14742,-23.22794 0.006,-26.23047 -0.58344,-1.53445 -0.56258,-2.87146 0.0547,-3.61524 0.53882,-0.64916 0.71151,-2.20365 0.38477,-3.45312 -0.28802,-1.10128 -0.37805,-1.6666 0.375,-1.93945 l 0.72851,-7.49805 c -0.0149,-0.0109 -0.0696,0.007 -0.082,-0.006 -0.36289,-0.36287 -0.82182,-26.65089 -1.01953,-58.41797 -0.19772,-31.76712 -0.46409,-58.95891 -0.5918,-60.42578 -0.17257,-1.98187 -1.06088,-3.94086 -1.49414,-3.84961 z"
        transform="scale(0.26458333)" />
      <path style="fill:none;stroke-linecap:butt;stroke-linejoin:miter;stroke-miterlimit:4;stroke-opacity:1"
        d="m 34.945492,207.78496 0.06681,-47.22418 0.240286,-48.28133 v 0" id="svg-board-line4"
        class="svg-board-line" />
    </g>
    <!-- <path id="winning-line" /> -->
    <g id="winning-lines">
      <path style="fill:none;fill-opacity:1;stroke:#990000;stroke-width:3.01846099;stroke-linecap:round;stroke-linejoin:round;stroke-miterlimit:4;stroke-opacity:1;" d="m 0 19 c 0 0 36.0153 -5.53442 93.788128 -1.59256" id="win-line1"/>
      <path style="fill:none;fill-opacity:1;stroke:#990000;stroke-width:3.01846099;stroke-linecap:round;stroke-linejoin:round;stroke-miterlimit:4;stroke-opacity:1;" d="m 0 50 c 0 0 36.0153 -5.53442 93.788128 -1.59256" id="win-line2"/>
      <path style="fill:none;fill-opacity:1;stroke:#990000;stroke-width:3.01846099;stroke-linecap:round;stroke-linejoin:round;stroke-miterlimit:4;stroke-opacity:1;" d="m 0 83 c 0 0 36.0153 -5.53442 93.788128 -1.59256" id="win-line3"/>
      <path style="fill:none;fill-opacity:1;stroke:#990000;stroke-width:3.01846099;stroke-linecap:round;stroke-linejoin:round;stroke-miterlimit:4;stroke-opacity:1;" d="m 0 5 c 0 0 39.4577 28.3159 92.7153 87.8731" id="win-line4"/>
      <path style="fill:none;fill-opacity:1;stroke:#990000;stroke-width:3.01846099;stroke-linecap:round;stroke-linejoin:round;stroke-miterlimit:4;stroke-opacity:1;" d="m 93.788128 1 c 0 0 -30.3472 39.7613 -93.332 92.8251" id="win-line5"/>
      <path style="fill:none;fill-opacity:1;stroke:#990000;stroke-width:3.01846099;stroke-linecap:round;stroke-linejoin:round;stroke-miterlimit:4;stroke-opacity:1;" d="m 13 1 c 0 0 6.03001 35.9357 2.91097 93.4" id="win-line6"/>
      <path style="fill:none;fill-opacity:1;stroke:#990000;stroke-width:3.01846099;stroke-linecap:round;stroke-linejoin:round;stroke-miterlimit:4;stroke-opacity:1;" d="m 45 1 c 0 0 6.03001 35.9357 2.91097 93.4" id="win-line7"/>
      <path style="fill:none;fill-opacity:1;stroke:#990000;stroke-width:3.01846099;stroke-linecap:round;stroke-linejoin:round;stroke-miterlimit:4;stroke-opacity:1;" d="m 77 1 c 0 0 6.03001 35.9357 2.91097 93.4" id="win-line8"/>
    </g>
  </svg>