<svg viewBox="0 0 68.669676 70.463829" class="svg-o-mark" xmlns="http://www.w3.org/2000/svg">
    <g transform="translate(-63.865701,-114.48105)">
      <path style="fill:#000;stroke-width:0.08466667"
        d="m 96.161752,181.9544 -1.227667,-0.0494 1.778,-0.0183 c 1.631274,-0.0168 4.945555,-0.20048 5.757335,-0.31901 0.31408,-0.0459 2.08228,-0.36533 3.76026,-0.67937 1.20292,-0.22514 4.44369,-1.4771 6.44207,-2.48868 0.59832,-0.30286 2.66455,-1.6382 2.75079,-1.77774 0.12112,-0.19596 -0.17498,-0.0578 -0.8702,0.40599 -0.84649,0.56473 -1.83432,1.11659 -1.99869,1.11659 -0.0617,0 -0.25355,0.0959 -0.42624,0.21307 -0.17268,0.11718 -0.34493,0.19393 -0.38276,0.17055 -0.0847,-0.0524 -1.19755,0.32952 -2.71356,0.93126 -1.28396,0.50962 -2.50709,0.85071 -3.46299,0.96569 -0.35384,0.0426 -1.25295,0.17925 -1.99801,0.30375 -1.08082,0.18061 -1.70555,0.23236 -3.09034,0.25602 l -1.735665,0.0297 1.269995,-0.11929 c 2.8573,-0.26837 7.12452,-1.06921 8.42434,-1.58101 0.34925,-0.13752 1.14935,-0.48954 1.778,-0.78229 0.62865,-0.29274 1.2573,-0.58085 1.397,-0.64026 0.1397,-0.0594 0.21317,-0.12297 0.16328,-0.14126 -0.0499,-0.0183 -0.6976,0.2175 -1.43934,0.52396 -2.81284,1.16219 -3.7195,1.44451 -5.58194,1.73811 -0.5588,0.0881 -1.26365,0.21585 -1.56633,0.28391 -1.17561,0.26433 -2.37476,0.3881 -3.736204,0.38563 -1.431921,-0.003 -3.533696,-0.17446 -4.052575,-0.33137 -0.162676,-0.0492 -0.632447,-0.0894 -1.043935,-0.0894 -0.812038,0 -2.456487,-0.1907 -3.401624,-0.39446 -0.560444,-0.12083 -1.39091,-0.306 -2.543147,-0.56705 -0.65974,-0.14946 -3.348244,-1.33748 -4.606632,-2.0356 -0.538022,-0.29849 -1.234132,-0.67734 -1.546914,-0.84191 -0.31278,-0.16456 -0.950955,-0.5887 -1.418166,-0.94252 -0.664117,-0.50312 -0.849474,-0.60847 -0.849474,-0.48299 0,0.23691 0.625127,0.90528 1.270838,1.35874 0.644813,0.45284 1.099829,0.82361 1.099829,0.8962 0,0.0969 -0.728828,-0.31826 -1.312333,-0.7475 -0.325967,-0.23979 -0.748153,-0.54105 -0.938192,-0.66947 -0.190038,-0.12841 -0.454341,-0.34707 -0.58734,-0.48589 -0.132999,-0.13882 -0.282312,-0.25254 -0.331809,-0.25271 -0.0495,-1.7e-4 -0.596039,-0.49547 -1.21454,-1.10066 -0.618501,-0.6052 -1.161097,-1.10036 -1.205767,-1.10036 -0.169276,0 -0.854106,-0.59806 -1.395,-1.21825 -0.309117,-0.35443 -0.597045,-0.64442 -0.639839,-0.64442 -0.04279,0 -0.307684,-0.29527 -0.588644,-0.65616 -0.28096,-0.3609 -0.640607,-0.78952 -0.799216,-0.9525 -0.275673,-0.28328 -0.923769,-1.15233 -1.673214,-2.24367 -0.19187,-0.2794 -0.452882,-0.62865 -0.580028,-0.77611 -0.507321,-0.58837 -1.612477,-2.75425 -2.248315,-4.40623 -0.519943,-1.35087 -0.955062,-2.66148 -1.01035,-3.04324 -0.03269,-0.22573 -0.08932,-0.44852 -0.12585,-0.49509 -0.03652,-0.0466 -0.09351,-0.23706 -0.126622,-0.42333 -0.03312,-0.18627 -0.136339,-0.46485 -0.229383,-0.61907 -0.133292,-0.22093 -0.1749,-0.46411 -0.196184,-1.14661 -0.01486,-0.47642 -0.104237,-1.24559 -0.198622,-1.70927 -0.531807,-2.61256 -0.387532,-8.0968 0.295749,-11.24215 0.119611,-0.55061 0.198084,-1.05163 0.174385,-1.11339 -0.0732,-0.19075 0.453498,-1.89034 1.050187,-3.38885 0.148338,-0.37253 0.411038,-1.07738 0.583776,-1.56633 0.172739,-0.48895 0.437408,-1.13098 0.588155,-1.42673 0.256792,-0.50381 0.292586,-0.68588 0.113025,-0.5749 -0.04211,0.026 -0.261315,0.35292 -0.487115,0.72644 -0.225799,0.37351 -0.42606,0.6636 -0.445024,0.64464 -0.01896,-0.019 0.215284,-0.54208 0.520552,-1.16247 0.840322,-1.70777 2.672324,-4.64042 3.62421,-5.80159 1.178419,-1.43752 3.632267,-3.80906 4.817242,-4.65566 2.026947,-1.44815 4.208136,-2.7168 5.828972,-3.39032 1.448999,-0.60212 1.619689,-0.65371 1.796839,-0.54308 0.08543,0.0533 0.215246,0.097 0.288476,0.097 0.07323,0 0.111226,0.0355 0.08443,0.0788 -0.02679,0.0434 -0.01,0.10275 0.03734,0.132 0.04733,0.0292 0.08605,0.12713 0.08605,0.21751 0,0.11885 0.05859,0.16434 0.211666,0.16434 0.26813,0 0.28004,0.21264 0.02699,0.48199 -0.176756,0.18815 -0.17808,0.2014 -0.03088,0.30904 0.144629,0.10575 0.139236,0.12233 -0.09049,0.2781 -0.13436,0.0911 -0.388105,0.23988 -0.563878,0.33063 -0.360687,0.18621 -1.138212,0.93833 -1.055518,1.02102 0.02971,0.0297 0.294113,-0.0794 0.587562,-0.24249 0.293448,-0.16308 0.704993,-0.32188 0.914543,-0.35289 l 0.381,-0.0564 -0.295793,0.25198 c -0.162685,0.13859 -0.276616,0.27116 -0.253178,0.29459 0.02344,0.0234 0.670893,-0.30209 1.438791,-0.72339 1.620175,-0.88891 1.713807,-0.93137 1.48889,-0.67521 -0.207661,0.2365 -0.184639,0.23328 0.541937,-0.0759 0.585883,-0.24932 0.820548,-0.27273 0.608541,-0.0607 -0.0551,0.0551 -0.100188,0.13067 -0.100188,0.16793 0,0.13636 0.230225,0.061 0.680116,-0.22269 0.253331,-0.15973 0.477459,-0.27356 0.498062,-0.25296 0.0206,0.0206 -0.04246,0.14555 -0.14013,0.27767 l -0.177591,0.2402 1.405946,-0.45118 c 0.77327,-0.24815 1.420744,-0.43638 1.438831,-0.4183 0.05448,0.0545 -1.041529,0.64021 -1.783112,0.95295 -0.381951,0.16107 -0.754606,0.34727 -0.828122,0.41378 -0.07352,0.0665 -0.178292,0.12093 -0.232834,0.12093 -0.05454,0 -0.166621,0.0675 -0.249065,0.1499 -0.08244,0.0824 -0.333086,0.25725 -0.55698,0.38846 -0.223895,0.13121 -0.391693,0.25395 -0.372886,0.27276 0.01881,0.0188 0.366683,-0.0999 0.773056,-0.26373 0.406373,-0.16387 0.771003,-0.27807 0.810288,-0.25379 0.03929,0.0243 0.431208,-0.0861 0.870938,-0.24527 0.980576,-0.35495 2.609184,-0.83419 2.660493,-0.78288 0.04036,0.0404 -1.280521,0.60861 -2.595677,1.11669 -0.867421,0.3351 -3.102796,1.64499 -3.070866,1.79948 0.01071,0.0518 -0.217893,0.23562 -0.508,0.40848 -0.883103,0.52621 -1.924467,1.23627 -1.924467,1.3122 0,0.0394 0.05715,0.0498 0.127,0.023 0.255273,-0.098 0.108387,0.0441 -0.803128,0.77657 -0.51157,0.41109 -0.916228,0.76135 -0.899239,0.77834 0.03054,0.0305 0.472254,-0.23178 1.707526,-1.01403 0.349293,-0.22119 0.656206,-0.40216 0.68203,-0.40216 0.02582,0 -0.42303,0.36875 -0.997452,0.81944 -2.494978,1.95758 -2.897058,2.35601 -4.641325,4.59922 -1.170256,1.50501 -1.600346,2.11667 -1.488342,2.11667 0.02278,0 0.547633,-0.59991 1.16634,-1.33314 1.633027,-1.93528 2.231715,-2.53796 3.791923,-3.81718 1.478559,-1.21228 2.72893,-2.0722 4.213578,-2.89782 1.006188,-0.55954 1.249108,-0.63412 0.739422,-0.227 -0.186267,0.14878 -0.586317,0.50272 -0.889,0.78653 -0.302683,0.2838 -0.954657,0.82598 -1.44883,1.20482 -1.82648,1.40023 -4.39317,3.87574 -4.39317,4.2371 0,0.0636 -0.07879,0.22621 -0.175098,0.36145 -0.09631,0.13525 -0.139033,0.24591 -0.09495,0.24591 0.110141,0 0.782197,-0.79963 1.092844,-1.30029 0.278976,-0.44961 1.851995,-1.91679 2.055244,-1.91695 0.0695,-5e-5 0.450504,-0.22286 0.846666,-0.49512 0.775621,-0.53305 1.524629,-0.98517 1.524629,-0.92031 0,0.022 -0.314325,0.25202 -0.6985,0.51106 -0.912476,0.61526 -1.685911,1.28166 -2.007588,1.72977 -0.142069,0.19791 -0.292092,0.35984 -0.333384,0.35984 -0.04129,0 -0.09777,0.0591 -0.1255,0.13139 -0.05904,0.15387 -0.05987,0.15429 0.751972,-0.38762 0.941822,-0.62868 2.243667,-1.39924 2.243667,-1.32802 0,0.0167 -0.421213,0.32935 -0.93603,0.69477 -1.632711,1.15891 -3.603051,3.06715 -5.11381,4.95265 -0.354095,0.44192 -0.60717,0.81571 -0.56239,0.83064 0.04478,0.0149 0.201841,-0.0351 0.349025,-0.11125 0.147185,-0.0761 0.285775,-0.12021 0.30798,-0.098 0.04756,0.0476 -0.261437,0.67598 -0.496263,1.00928 -0.09022,0.12806 -0.229819,0.23283 -0.310213,0.23283 -0.08039,0 -0.295434,0.20003 -0.477869,0.4445 -0.182433,0.24448 -0.437912,0.56966 -0.56773,0.72262 -0.129818,0.15296 -0.236033,0.34645 -0.236033,0.42998 0,0.0835 -0.115882,0.32682 -0.257515,0.54065 -0.422798,0.63831 -0.927731,2.26353 -0.966727,3.11159 -0.0182,0.39581 -0.07585,0.83167 -0.128103,0.96856 -0.05226,0.1369 -0.17738,0.8608 -0.278051,1.60867 -0.255738,1.89985 -0.251255,4.80394 0.0096,6.23836 0.09842,0.54116 0.216691,1.25003 0.262816,1.57525 0.04613,0.32523 0.106945,0.66352 0.135154,0.75174 0.04918,0.15384 0.0458,0.15368 -0.08262,-0.004 -0.168596,-0.20692 -0.170024,-0.0863 -0.0045,0.38276 0.07116,0.2017 0.110141,0.41686 0.08662,0.47814 -0.02352,0.0613 0.03256,0.30252 0.124617,0.53608 0.245423,0.62264 0.21936,0.77598 -0.07363,0.43319 -0.151793,-0.1776 -0.3248,-0.56826 -0.468694,-1.05833 -0.311727,-1.06168 -0.910135,-2.68182 -0.990548,-2.68182 -0.03619,0 0.0077,0.25705 0.09756,0.57123 0.277372,0.96991 0.165039,0.87785 -0.180465,-0.1479 -0.180377,-0.53552 -0.331885,-1.12607 -0.336685,-1.31233 -0.0048,-0.18627 -0.04483,-0.41487 -0.08896,-0.508 -0.05488,-0.11584 -0.06706,0.034 -0.03853,0.47416 0.03079,0.47505 0.21856,1.2295 0.717324,2.88214 0.371591,1.23126 0.795995,2.57969 0.94312,2.99653 0.639283,1.81122 2.257129,4.5953 3.248626,5.5904 0.142597,0.14312 0.373568,0.42402 0.513268,0.62422 0.337144,0.48316 1.492743,1.56552 2.539999,2.37902 0.465667,0.36173 0.884767,0.7472 0.931334,0.8566 0.217632,0.51132 3.412495,2.25071 5.249333,2.85791 2.446239,0.80864 3.429685,1.02668 5.249333,1.16379 3.62948,0.27349 6.21432,-0.0245 8.93196,-1.02978 1.79083,-0.66243 3.40972,-1.50539 4.49822,-2.34224 0.2619,-0.20135 0.77439,-0.59431 1.13888,-0.87325 0.6998,-0.53555 2.87772,-2.66373 3.69563,-3.61121 0.44734,-0.51821 1.38143,-2.12983 2.37302,-4.09429 0.47174,-0.93459 1.04277,-2.45983 1.29962,-3.47134 0.14106,-0.55554 0.28329,-0.91945 0.41364,-1.05833 0.24383,-0.25979 0.32041,-0.64374 0.76843,-3.85234 0.28863,-2.06709 -0.0224,-5.55531 -0.73241,-8.21266 -0.26877,-1.00604 -0.44623,-1.47237 -0.85381,-2.24367 -0.28298,-0.53552 -0.58858,-1.07844 -0.6791,-1.2065 -0.0905,-0.12806 -0.12552,-0.23283 -0.0778,-0.23283 0.0478,0 0.23132,0.21202 0.40793,0.47115 0.1766,0.25914 0.40941,0.57346 0.51734,0.6985 0.31733,0.36761 -0.46674,-1.11593 -0.90295,-1.70848 -0.20849,-0.28321 -0.5025,-0.72551 -0.65334,-0.98289 -0.41015,-0.6998 -1.28705,-1.81151 -1.48733,-1.8856 -0.10915,-0.0404 -0.15773,-0.11273 -0.12789,-0.19047 0.0638,-0.16621 -0.5102,-0.72572 -0.67831,-0.66121 -0.0964,0.037 -0.11181,0.12827 -0.067,0.39669 l 0.0582,0.34864 -0.18868,-0.16933 c -0.10378,-0.0931 -0.2659,-0.32062 -0.36027,-0.50552 -0.28407,-0.55662 -0.918,-1.21928 -1.5243,-1.59341 -0.5162,-0.31853 -0.75852,-0.54963 -0.45367,-0.43264 0.0651,0.025 0.1426,0.006 0.17213,-0.0414 0.0955,-0.15457 -1.0595,-0.91997 -2.51778,-1.66846 -0.78259,-0.40168 -1.40797,-0.74524 -1.38974,-0.76347 0.0182,-0.0182 0.50005,0.11853 1.07073,0.3039 1.07129,0.348 1.79098,0.70171 2.27464,1.11793 0.15331,0.13193 0.55444,0.3707 0.8914,0.5306 0.46843,0.22229 0.80281,0.47628 1.42045,1.07895 1.28447,1.25333 3.00463,3.3364 3.92558,4.7538 0.50856,0.7827 1.55326,2.83213 1.86253,3.65378 0.25423,0.67542 0.97697,3.53338 0.97697,3.86325 0,0.13276 0.0795,0.78484 0.17678,1.44905 0.20928,1.42962 0.22638,2.39732 0.0827,4.679 -0.15281,2.42666 -0.287,3.36367 -0.72142,5.03767 -0.70345,2.7107 -2.10022,6.00632 -3.33116,7.85975 -0.38138,0.57425 -0.64598,1.02889 -0.58799,1.01031 0.22457,-0.0719 1.45448,-2.03744 2.13323,-3.40906 1.4356,-2.90108 2.3534,-5.67123 2.55268,-7.70467 0.032,-0.32596 0.0947,-0.68791 0.1395,-0.80433 0.13594,-0.35345 0.3118,-2.25904 0.32035,-3.47134 0.01,-1.35913 0.14164,-1.25431 0.16882,0.134 0.0308,1.57227 -0.0768,3.05733 -0.34618,4.77667 -0.39433,2.51725 -0.4207,2.60204 -1.95527,6.28621 -0.83122,1.99558 -2.87866,4.97872 -4.71275,6.86651 -0.75645,0.7786 -2.50774,2.21456 -3.54419,2.90603 -2.55106,1.70197 -6.90762,3.16606 -10.39878,3.49468 -0.51223,0.0482 -1.75048,0.095 -2.751663,0.10403 -1.001184,0.009 -1.706034,0.0429 -1.566334,0.0754 0.39275,0.0914 2.577994,0.0878 3.894667,-0.006 2.37751,-0.16994 4.55304,-0.67206 7.874,-1.81735 0.16495,-0.0569 0.16518,-0.055 0.009,0.0726 -0.29057,0.23736 -3.01995,1.06651 -4.4997,1.36695 -0.86924,0.17648 -1.50751,0.27049 -3.63728,0.53575 l -0.592667,0.0738 0.594888,0.0115 c 2.469179,0.0477 7.544569,-1.24013 10.276659,-2.60764 0.35372,-0.17705 0.73837,-0.35119 0.85479,-0.38699 0.27421,-0.0843 0.70063,-0.37256 2.21009,-1.49397 0.68004,-0.50521 1.28083,-0.91857 1.33509,-0.91857 0.0543,0 0.58132,-0.4572 1.17123,-1.016 0.58991,-0.5588 1.11903,-1.016 1.17583,-1.016 0.12095,0 1.331,-1.32829 1.70395,-1.87045 0.25339,-0.36836 0.87049,-1.48631 0.87049,-1.577 0,-0.16555 -0.83341,1.08589 -1.13797,1.70878 -0.13581,0.27774 -0.26309,0.45652 -0.28284,0.39726 -0.0197,-0.0592 0.0252,-0.17519 0.0998,-0.25766 0.0746,-0.0825 0.13393,-0.18503 0.13177,-0.22793 -0.002,-0.0429 -0.28739,0.2268 -0.63384,0.59933 -0.34646,0.37254 -0.63045,0.63361 -0.63108,0.58018 -6.8e-4,-0.0534 0.29275,-0.39634 0.65196,-0.762 0.35922,-0.36567 0.87514,-0.98869 1.1465,-1.38451 0.31442,-0.45863 0.55233,-0.72309 0.65592,-0.72912 0.13466,-0.008 0.14765,0.0184 0.0757,0.15274 -0.10663,0.19925 -0.32589,0.91505 -0.28029,0.91505 0.0508,0 0.37106,-0.27223 0.59762,-0.508 0.62271,-0.64805 1.73588,-2.62571 1.66826,-2.96384 -0.0284,-0.14199 0.004,-0.26038 0.0902,-0.33211 0.11151,-0.0925 0.13493,-0.0917 0.13804,0.005 0.002,0.0639 0.0798,-0.0279 0.1727,-0.20393 0.0929,-0.17607 0.14467,-0.35944 0.11497,-0.4075 -0.0297,-0.048 0.007,-0.15527 0.0825,-0.23825 0.2017,-0.22289 1.18444,-2.96904 1.42826,-3.99116 0.11611,-0.48673 0.2985,-1.37073 0.40531,-1.96446 0.10681,-0.59372 0.22292,-1.0795 0.25801,-1.0795 0.0351,0 0.0462,0.14288 0.0246,0.3175 -0.0286,0.23197 -0.0189,0.27188 0.036,0.14817 0.0414,-0.0931 0.14325,-0.65913 0.22638,-1.25778 0.1865,-1.34313 0.13521,-3.42963 -0.12518,-5.09222 -0.18447,-1.17786 -0.7934,-3.78374 -1.20471,-5.15554 -0.25813,-0.86092 -1.79232,-4.01873 -2.23342,-4.59705 -0.12383,-0.16235 -0.33679,-0.51094 -0.47323,-0.77463 -0.13644,-0.2637 -0.47723,-0.78425 -0.75731,-1.15678 -0.28008,-0.37253 -0.60007,-0.85299 -0.71109,-1.06769 -0.20658,-0.39949 -1.01475,-1.34531 -1.14952,-1.34531 -0.0412,0 -0.41455,-0.33337 -0.82968,-0.74083 -1.28983,-1.26601 -1.96794,-1.88384 -2.06762,-1.88384 -0.0527,0 0.12203,0.22018 0.38833,0.48929 0.54715,0.55292 0.63167,0.73249 0.18408,0.39109 -0.35623,-0.2717 -1.09677,-1.21904 -0.95294,-1.21904 0.1836,0 1.25305,0.68311 1.25305,0.80038 0,0.10711 0.9425,0.90795 1.15979,0.98548 0.0531,0.019 0.50445,0.42662 1.00291,0.90591 0.49847,0.47929 0.9209,0.85685 0.93873,0.83902 0.0663,-0.0664 -0.47372,-0.72442 -0.6371,-0.77627 -0.0933,-0.0296 -0.36209,-0.29869 -0.59726,-0.59793 -0.62479,-0.79504 -1.23767,-1.38129 -2.22175,-2.1252 -0.48015,-0.36297 -1.00267,-0.78522 -1.16115,-0.93833 -0.34945,-0.33762 -0.82216,-0.40163 -0.74346,-0.10069 0.0389,0.1486 0.0162,0.17027 -0.13829,0.13232 -0.12731,-0.0313 -0.04,0.0883 0.2809,0.38455 0.25612,0.23647 0.37042,0.37382 0.254,0.30522 -1.84673,-1.08824 -3.13255,-1.7728 -3.70755,-1.97387 -0.69338,-0.24246 -0.41905,-0.27831 0.32089,-0.0419 0.29153,0.0931 0.59177,0.16813 0.66719,0.16664 0.29846,-0.006 -0.19739,-0.24918 -1.17251,-0.57538 -0.88188,-0.295 -1.01375,-0.3191 -1.19545,-0.21842 -0.28512,0.15798 -0.75457,0.15411 -0.75457,-0.006 0,-0.069 0.097,-0.14974 0.21559,-0.1795 0.20215,-0.0507 0.20694,-0.0637 0.0769,-0.20738 -0.0763,-0.0843 -0.46858,-0.24135 -0.87176,-0.349 -0.67236,-0.17954 -0.70852,-0.19959 -0.43672,-0.24225 0.24078,-0.0378 0.26459,-0.0574 0.127,-0.10466 -0.27448,-0.0943 -2.1058,-0.39928 -3.429,-0.57114 -0.67521,-0.0877 -1.53247,-0.20119 -1.905,-0.2522 -0.37253,-0.051 -1.18424,-0.10581 -1.80379,-0.12179 -1.155198,-0.0298 -1.675258,-0.1327 -0.670651,-0.1327 0.307695,0 0.582994,-0.0381 0.611771,-0.0847 0.10264,-0.16608 -0.823481,-0.0818 -3.281108,0.29862 -1.706238,0.26411 -2.641044,0.4484 -3.006279,0.59267 -0.739836,0.29224 -0.830431,0.25923 -0.231943,-0.0845 0.542149,-0.31138 1.886294,-0.7634 3.132667,-1.05346 1.129515,-0.26287 2.595751,-0.36513 5.291663,-0.36904 2.32577,-0.003 2.39311,-0.008 1.86267,-0.12878 -0.41316,-0.094 -0.50812,-0.14058 -0.381,-0.18667 0.0931,-0.0338 0.21696,-0.0435 0.27517,-0.0217 0.0582,0.0218 0.10583,0.005 0.10583,-0.0365 0,-0.0419 -0.20967,-0.14746 -0.46593,-0.23457 -0.25627,-0.0871 -0.45629,-0.16725 -0.44451,-0.1781 0.0118,-0.0108 0.37879,0.0136 0.81555,0.0544 0.77754,0.0726 1.19725,0.0178 0.77137,-0.10078 l -0.21081,-0.0587 0.21167,-0.009 c 0.32711,-0.0132 2.96333,0.50952 2.96333,0.58763 0,0.0381 0.21907,0.0935 0.48683,0.12323 0.52258,0.058 1.6451,0.39182 2.65586,0.78982 0.34374,0.13536 0.77424,0.27323 0.95667,0.30639 0.18243,0.0332 0.53638,0.13686 0.78654,0.23046 0.37244,0.13935 0.44576,0.19881 0.4047,0.32818 -0.0529,0.16653 0.29545,0.39198 0.97715,0.6325 0.3142,0.11085 0.8722,0.48342 1.43936,0.96103 0.3234,0.27234 1.23861,0.77378 1.41226,0.77378 0.13177,0 1.01073,0.72989 1.97866,1.64307 0.39949,0.37689 1.02452,0.95057 1.38895,1.27483 0.36443,0.32425 0.7868,0.7624 0.93861,0.97366 0.28088,0.39088 0.77565,0.8161 0.85604,0.7357 0.0244,-0.0244 -0.0147,-0.12851 -0.0867,-0.23142 -0.0842,-0.12022 -0.11304,-0.27724 -0.0806,-0.43922 0.0435,-0.21741 -0.003,-0.30603 -0.33796,-0.64386 -0.2136,-0.21547 -0.53215,-0.55769 -0.70788,-0.76049 -0.17574,-0.2028 -0.41059,-0.40336 -0.5219,-0.44568 -0.12475,-0.0474 -0.18473,-0.12294 -0.15637,-0.19686 0.0253,-0.066 -0.0661,-0.27465 -0.20305,-0.46376 -0.137,-0.18911 -0.24903,-0.37274 -0.24897,-0.40807 7e-5,-0.0353 -0.41267,-0.46428 -0.91718,-0.95323 -0.50452,-0.48895 -0.95225,-0.9467 -0.99495,-1.01722 -0.0427,-0.0705 -0.2872,-0.29731 -0.54331,-0.50398 -0.25612,-0.20668 -0.65897,-0.55435 -0.89522,-0.77261 -0.42838,-0.39575 -1.02249,-0.75419 -1.25005,-0.75419 -0.066,0 -0.16792,-0.0577 -0.22648,-0.12829 -0.10594,-0.12766 -0.88266,-0.54905 -1.01201,-0.54905 -0.0373,0 -0.0878,0.0762 -0.11212,0.16934 -0.0544,0.20818 -0.28969,0.21775 -0.89975,0.0366 -0.40889,-0.12143 -0.43367,-0.14267 -0.29054,-0.24902 0.0861,-0.064 0.23269,-0.0991 0.32582,-0.0781 0.0931,0.021 0.22649,-5.5e-4 0.29634,-0.0479 0.108,-0.0733 0.0953,-0.11172 -0.0847,-0.25718 -0.17767,-0.14357 -0.71235,-0.42037 -0.81202,-0.42037 -0.0161,0 -0.007,0.0572 0.0194,0.127 0.0268,0.0699 0.0248,0.127 -0.004,0.127 -0.0861,0 -1.48889,-0.66594 -1.48889,-0.70683 0,-0.0205 0.14077,-0.006 0.31283,0.0332 0.17205,0.0388 0.33678,0.0558 0.36606,0.0376 0.0701,-0.0433 1.02858,0.25648 1.34806,0.42169 0.31631,0.16357 0.4365,0.16461 0.37458,0.003 -0.0703,-0.18309 0.45151,0.0445 1.15447,0.50353 0.30268,0.19766 0.81703,0.53079 1.143,0.74029 1.42679,0.91699 4.1161,3.35927 5.06258,4.59754 0.28475,0.37253 0.69892,0.89657 0.92039,1.16453 0.22146,0.26796 0.50532,0.66801 0.6308,0.889 0.12549,0.22099 0.40754,0.68755 0.62679,1.0368 0.70357,1.12073 2.58238,4.96289 2.87744,5.88434 0.0596,0.18626 0.20392,0.54821 0.32063,0.80433 0.1167,0.25612 0.43292,1.09432 0.70271,1.86267 0.26979,0.76835 0.49006,1.30175 0.48948,1.18533 -5.9e-4,-0.11642 -0.0318,-0.28787 -0.0693,-0.381 -0.0375,-0.0931 -0.0377,-0.20788 -4.2e-4,-0.25499 0.0887,-0.112 -0.0298,-0.63993 -0.38949,-1.73468 -0.3238,-0.98568 -0.35032,-1.12556 -0.16762,-0.88401 0.18966,0.25076 0.15258,0.0336 -0.0514,-0.301 -0.0992,-0.16281 -0.25427,-0.52476 -0.34449,-0.80434 -0.0902,-0.27957 -0.30817,-0.81311 -0.48432,-1.18565 -0.17615,-0.37253 -0.51629,-1.0918 -0.75586,-1.59838 -0.23957,-0.50657 -0.43558,-0.94233 -0.43558,-0.96834 0,-0.026 0.1208,0.0646 0.26843,0.20138 l 0.26843,0.24868 -0.28151,-0.508 c -0.15483,-0.2794 -0.37712,-0.67945 -0.49398,-0.889 -0.11685,-0.20955 -0.43481,-0.66833 -0.70658,-1.0195 -0.27177,-0.35117 -0.49412,-0.68306 -0.49412,-0.73754 0,-0.0545 -0.16801,-0.30531 -0.37335,-0.55741 -0.20535,-0.25211 -0.43681,-0.5811 -0.51437,-0.73108 -0.20031,-0.38736 -1.68438,-1.99017 -2.12065,-2.29033 -0.20139,-0.13856 -0.53258,-0.47087 -0.73597,-0.73846 -0.20339,-0.26759 -0.43923,-0.4999 -0.52409,-0.51625 -0.10435,-0.0201 -0.13353,0.004 -0.0902,0.0741 0.0406,0.0657 0.0232,0.0901 -0.0474,0.0666 -0.11627,-0.0388 -0.17151,-0.12614 -0.32341,-0.51161 -0.0561,-0.14234 -0.21086,-0.28064 -0.40468,-0.36163 -0.17262,-0.0721 -0.47561,-0.26367 -0.6733,-0.42567 -0.19769,-0.16199 -0.43285,-0.29454 -0.52257,-0.29454 -0.0897,0 -0.23571,-0.0813 -0.32442,-0.18058 -0.16026,-0.17944 -0.16001,-0.18019 0.0398,-0.11793 0.29578,0.0922 0.16956,-0.053 -0.36804,-0.42327 -0.33934,-0.2337 -0.46807,-0.37611 -0.46807,-0.51778 0,-0.19337 -0.35322,-0.45377 -0.61552,-0.45377 -0.0638,0 -0.19494,-0.0909 -0.2915,-0.20191 -0.0965,-0.11105 -0.4368,-0.32345 -0.7561,-0.47201 -0.3193,-0.14856 -0.86946,-0.41881 -1.22258,-0.60056 -0.35312,-0.18175 -0.88652,-0.39146 -1.18534,-0.46604 -0.29881,-0.0746 -0.82904,-0.22415 -1.17829,-0.3324 -0.34925,-0.10824 -1.07315,-0.24012 -1.60867,-0.29305 -0.53551,-0.0529 -1.12606,-0.11861 -1.31233,-0.14596 -0.87184,-0.128 0.33394,0.28905 2.23471,0.77294 0.29775,0.0758 0.62055,0.19328 0.71734,0.26107 0.0968,0.0678 0.24523,0.12325 0.32988,0.12325 0.16919,0 0.65507,0.32802 0.65507,0.44224 0,0.0394 -0.073,0.0327 -0.1622,-0.0151 -0.1344,-0.0719 -2.38691,-0.50567 -2.67199,-0.51452 -0.0477,-10e-4 -0.0108,-0.0601 0.0821,-0.13034 0.1449,-0.1095 0.15092,-0.13903 0.0423,-0.20768 -0.0696,-0.044 -0.29503,-0.0806 -0.50092,-0.0813 -0.20588,-7.1e-4 -0.43448,-0.053 -0.508,-0.11629 -0.0735,-0.0633 -0.43846,-0.22299 -0.811,-0.35499 -0.51708,-0.18321 -0.84759,-0.24322 -1.397,-0.25363 -0.93977,-0.0178 -1.63003,-0.11539 -1.73566,-0.24539 -0.0466,-0.0573 -0.19897,-0.14674 -0.33867,-0.19874 -0.376,-0.13996 0.76449,-0.0495 2.54,0.20156 1.60785,0.22732 1.82033,0.24127 1.82033,0.11952 0,-0.0466 -0.0881,-0.0847 -0.19572,-0.0847 -0.10764,0 -0.4818,-0.0749 -0.83146,-0.16652 -1.14675,-0.30036 -4.98415,-0.56781 -4.98415,-0.34737 0,0.0433 0.0857,0.0954 0.1905,0.11581 0.10477,0.0204 0,0.0367 -0.23284,0.0364 -0.7453,-0.001 -1.77054,0.12709 -2.018509,0.25241 -0.157766,0.0797 -0.352193,0.10269 -0.565133,0.0667 -0.255352,-0.0431 -0.35898,-0.0205 -0.485633,0.10616 -0.158238,0.15824 -0.165691,0.15711 -0.432639,-0.0658 -0.301722,-0.25189 -0.372987,-0.24756 -1.541757,0.0937 -0.581996,0.16993 -1.103803,0.21773 -0.963426,0.0883 0.04424,-0.0408 0.328084,-0.15569 0.630767,-0.2553 0.302683,-0.0996 0.607483,-0.21804 0.677333,-0.26318 0.438099,-0.28311 -1.555599,0.13833 -2.819649,0.59605 -0.409923,0.14843 -0.768361,0.24683 -0.796528,0.21866 -0.0881,-0.0881 1.028732,-0.54786 1.982911,-0.81629 0.502479,-0.14136 1.27555,-0.29321 1.717933,-0.33746 1.521975,-0.1522 3.091982,-0.25412 3.91084,-0.25387 0.77296,2.4e-4 1.05072,-0.0753 0.81424,-0.22146 -0.057,-0.0353 -0.81012,-0.0965 -1.673546,-0.1361 -1.446302,-0.0663 -2.059169,-0.041 -3.686534,0.1523 -0.279608,0.0332 -0.304815,0.0254 -0.144546,-0.0451 0.295038,-0.12966 2.101771,-0.42093 2.94884,-0.47539 1.251316,-0.0805 5.158646,0.0985 5.747046,0.26324 0.80915,0.22653 1.88256,0.39488 2.75166,0.43154 0.94608,0.0399 1.21211,0.0887 1.13795,0.2087 -0.0299,0.0483 0.0257,0.10881 0.12353,0.13439 0.0978,0.0256 0.17786,0.10095 0.17786,0.16747 0,0.0918 0.0697,0.1079 0.28897,0.0667 0.31847,-0.0597 0.67038,0.0174 0.59987,0.13146 -0.0247,0.04 -0.009,0.0947 0.0343,0.12166 0.15683,0.0969 1.53941,0.47076 1.74105,0.47076 0.55498,0 2.18275,0.60732 3.17786,1.18566 0.34925,0.20298 0.8255,0.46307 1.05834,0.57798 0.23283,0.11491 0.7958,0.45253 1.25104,0.75027 0.45524,0.29775 0.8639,0.51898 0.90815,0.49164 0.0889,-0.0549 1.19647,0.76849 2.29564,1.70662 0.92329,0.78802 3.0698,2.97703 3.96174,4.04019 1.02214,1.21837 2.2044,3.07677 3.10384,4.87897 1.71015,3.42659 2.42541,5.46733 3.08508,8.80219 0.43335,2.19075 0.60554,3.7552 0.6247,5.67581 0.0367,3.67944 -0.22721,5.63992 -1.21955,9.05934 -0.66392,2.28778 -0.65825,2.27281 -1.79708,4.74133 -0.99554,2.15795 -1.20131,2.56416 -1.36962,2.70385 -0.0735,0.061 -0.13409,0.17289 -0.13468,0.24868 -5.9e-4,0.0758 -0.11998,0.3664 -0.26532,0.6458 -0.14533,0.2794 -0.35097,0.67945 -0.45697,0.889 -0.37987,0.75094 -1.7265,2.28237 -4.05939,4.61649 -2.42517,2.42644 -2.6597,2.62334 -4.82691,4.05249 -0.65194,0.42991 -1.56751,1.05064 -2.03459,1.37939 -1.07831,0.75896 -2.18093,1.38367 -3.04542,1.72545 -0.37254,0.14728 -1.12172,0.47256 -1.66486,0.72285 -1.87369,0.86345 -2.64111,1.08778 -5.74348,1.67893 -1.57647,0.3004 -3.04635,0.46297 -5.037667,0.55719 -0.931333,0.0441 -1.731433,0.073 -1.778,0.0644 -0.04657,-0.009 -0.637116,-0.038 -1.312333,-0.0652 z m -1.989667,-0.0615 c -0.1397,-0.0199 -0.287188,-0.0683 -0.327751,-0.10763 -0.09771,-0.0947 0.643051,-2.6e-4 0.746851,0.0952 0.08328,0.0766 0.04042,0.0779 -0.4191,0.0124 z m -3.809999,-0.87297 c -0.372534,-0.13691 -0.955379,-0.34914 -1.295212,-0.47161 -0.339835,-0.12248 -0.59929,-0.24127 -0.576568,-0.264 0.04714,-0.0471 2.506803,0.81605 2.629546,0.92282 0.137353,0.11947 -0.04774,0.0737 -0.757766,-0.18721 z m -2.794,-1.34686 c -0.198912,-0.0941 -0.275789,-0.16309 -0.186296,-0.16712 0.152883,-0.007 0.651962,0.21639 0.651962,0.29166 0,0.0712 -0.119682,0.0392 -0.465666,-0.12454 z m -0.804334,-0.3433 c -0.112888,-0.073 -0.112888,-0.0821 0,-0.0821 0.06985,0 0.18415,0.0369 0.254,0.0821 0.112889,0.0729 0.112889,0.0821 0,0.0821 -0.06985,0 -0.18415,-0.0369 -0.254,-0.0821 z m -1.910696,-0.54428 c -0.415967,-0.20622 -0.718204,-0.37495 -0.671637,-0.37495 0.123863,-2e-5 1.625083,0.73444 1.518304,0.74281 -0.0497,0.004 -0.4307,-0.16164 -0.846667,-0.36786 z m -1.47597,-0.72572 c -0.162984,-0.0892 -0.265866,-0.16384 -0.228629,-0.16579 0.08972,-0.005 0.567295,0.24361 0.567295,0.29496 0,0.0554 -0.005,0.0535 -0.338666,-0.12917 z m 0.423333,-0.0897 c 0,-0.0493 0.0381,-0.0661 0.08467,-0.0373 0.04657,0.0288 0.08467,0.0691 0.08467,0.0897 0,0.0205 -0.0381,0.0373 -0.08467,0.0373 -0.04657,0 -0.08467,-0.0403 -0.08467,-0.0897 z m -0.867833,-0.38209 c -0.128058,-0.0695 -0.232833,-0.14415 -0.232833,-0.16595 0,-0.0887 0.162243,-0.0299 0.350453,0.12689 0.238236,0.19847 0.19977,0.21124 -0.11762,0.0391 z m 27.368504,-6.47091 c 0,-0.0466 0.0348,-0.0847 0.0774,-0.0847 0.0426,0 0.3461,-0.20002 0.67445,-0.4445 0.32836,-0.24447 0.758,-0.53975 0.95477,-0.65616 0.19676,-0.11642 0.66479,-0.47488 1.04005,-0.79658 0.37526,-0.3217 0.94899,-0.78329 1.27495,-1.02576 0.67861,-0.50479 1.71319,-1.61565 1.96944,-2.11466 0.0956,-0.18627 0.31208,-0.49107 0.48095,-0.67734 l 0.30705,-0.33866 -0.2484,0.50994 c -0.32101,0.65902 -1.52541,1.9887 -2.64402,2.91906 -0.47591,0.39581 -1.00218,0.83591 -1.16949,0.978 -0.44938,0.38162 -1.17727,0.8828 -1.41147,0.97184 -0.11278,0.0429 -0.20506,0.11518 -0.20506,0.16067 0,0.0704 -0.95341,0.68349 -1.06287,0.68349 -0.0208,0 -0.0378,-0.0381 -0.0378,-0.0847 z m -11.874505,-1.15674 c 0.05821,-0.0235 0.153458,-0.0235 0.211667,0 0.05821,0.0235 0.01058,0.0427 -0.105834,0.0427 -0.116416,0 -0.164041,-0.0192 -0.105833,-0.0427 z m -4.331607,-0.35503 c -0.02462,-0.0398 0.04933,-0.0545 0.164336,-0.0325 0.115008,0.022 0.209105,0.0546 0.209105,0.0724 0,0.0655 -0.330085,0.0302 -0.373441,-0.04 z m 24.003402,-5.68817 c 0.24847,-0.38369 1.3715,-2.15332 1.4936,-2.35357 0.177,-0.29027 0.22819,-0.16049 0.0628,0.15928 -0.20422,0.39492 -1.4854,2.27578 -1.59703,2.34455 -0.0519,0.032 -0.0336,-0.0357 0.0406,-0.15026 z m 1.68538,-1.1529 c 0,-0.0771 0.0952,-0.26506 0.21167,-0.41769 0.11642,-0.15263 0.21167,-0.31087 0.21167,-0.35164 0,-0.0408 0.0574,-0.14809 0.12749,-0.23848 0.12026,-0.15503 0.12305,-0.15184 0.0491,0.0561 -0.0431,0.12123 -0.15761,0.36832 -0.25449,0.54907 -0.0969,0.18076 -0.17614,0.37684 -0.17614,0.43574 0,0.0589 -0.0381,0.10708 -0.0847,0.10708 -0.0466,0 -0.0847,-0.0631 -0.0847,-0.14017 z m 0.38645,0.0307 c 0.0318,-0.0835 0.0791,-0.13049 0.1052,-0.10442 0.0261,0.0261 5e-5,0.0944 -0.0578,0.15181 -0.0836,0.083 -0.0933,0.0733 -0.0474,-0.0474 z m 0.71551,-0.76392 c -6.7e-4,-0.038 0.0423,-0.15228 0.0957,-0.254 l 0.097,-0.18493 -0.19402,0.16933 c -0.12689,0.11074 -0.18068,0.12748 -0.15545,0.0484 0.0212,-0.0665 0.11251,-0.16177 0.20287,-0.21166 0.0904,-0.0499 0.19026,-0.12882 0.222,-0.17538 0.24128,-0.35403 0.29582,-0.35403 0.11864,0 -0.24236,0.48424 -0.38484,0.70834 -0.38672,0.60826 z m -0.97313,-0.98926 c 0.0618,-0.20692 0.38348,-1.0383 0.6798,-1.75684 0.0816,-0.19791 0.17889,-0.35983 0.21617,-0.35983 0.0987,0 -0.10477,0.61458 -0.47643,1.43933 -0.33268,0.73826 -0.53548,1.06567 -0.41954,0.67734 z m 0.85752,-0.12495 c 0.0317,-0.13857 0.15961,-0.48147 0.28429,-0.762 0.12467,-0.28053 0.37088,-0.9482 0.54712,-1.48372 0.17624,-0.53552 0.35018,-1.03419 0.38652,-1.10817 0.0363,-0.074 0.11622,-0.43289 0.17751,-0.79761 0.0792,-0.47113 0.12597,-0.60377 0.1617,-0.45816 0.034,0.13843 0.11212,-0.1237 0.24087,-0.80779 0.21718,-1.15401 0.34267,-1.47946 0.34406,-0.89227 0.002,0.93307 -0.42476,2.66395 -0.88038,3.56907 -0.14936,0.2967 -0.1744,0.41839 -0.10137,0.49253 0.073,0.0741 0.0633,0.12335 -0.0392,0.19916 -0.0749,0.0554 -0.20208,0.32741 -0.28263,0.60452 -0.16928,0.5823 -0.45907,1.18302 -0.7166,1.48553 l -0.17952,0.21086 z m -39.066709,-0.12905 c -0.05816,-0.0931 -0.07649,-0.16934 -0.04073,-0.16934 0.03576,0 0.112606,0.0762 0.170768,0.16934 0.05816,0.0931 0.07649,0.16933 0.04073,0.16933 -0.03576,0 -0.112606,-0.0762 -0.170768,-0.16933 z m -0.502463,-0.873 c -0.100476,-0.1485 -0.230815,-0.3843 -0.28964,-0.524 -0.05882,-0.1397 -0.160647,-0.31847 -0.226272,-0.39727 -0.06562,-0.0788 -0.105554,-0.18456 -0.08873,-0.23503 0.01682,-0.0505 0.105685,0.0521 0.197472,0.22793 0.09179,0.17584 0.276874,0.50258 0.411306,0.72611 0.277142,0.46081 0.274023,0.61338 -0.0041,0.20226 z m 40.614822,0.111 c 0,-0.0466 0.0404,-0.0847 0.0897,-0.0847 0.0493,0 0.0661,0.0381 0.0373,0.0847 -0.0288,0.0466 -0.0691,0.0847 -0.0897,0.0847 -0.0205,0 -0.0373,-0.0381 -0.0373,-0.0847 z m -41.438097,-1.68127 c -0.19151,-0.37033 -0.161516,-0.44168 0.04808,-0.11435 0.09816,0.15329 0.157475,0.29971 0.131816,0.32537 -0.02566,0.0257 -0.106611,-0.0693 -0.179894,-0.21102 z m 40.422097,-0.002 c 0,-0.0466 0.0381,-0.10822 0.0847,-0.137 0.0466,-0.0288 0.0847,-0.0142 0.0847,0.0323 0,0.0466 -0.0381,0.10822 -0.0847,0.137 -0.0466,0.0288 -0.0847,0.0142 -0.0847,-0.0323 z m -41.021007,-1.026 c -0.07224,-0.1397 -0.112299,-0.254 -0.08902,-0.254 0.02328,0 0.10144,0.1143 0.173682,0.254 0.07224,0.1397 0.112299,0.254 0.08902,0.254 -0.02328,0 -0.10144,-0.1143 -0.173682,-0.254 z m 42.887557,-0.43058 c 0.052,-0.0971 0.11517,-0.15592 0.14044,-0.13065 0.0698,0.0698 -0.042,0.30723 -0.14464,0.30723 -0.0626,0 -0.0613,-0.0541 0.004,-0.17658 z m -43.302424,-0.63622 c -0.03013,-0.0785 -0.03574,-0.16182 -0.01245,-0.1851 0.02328,-0.0233 0.06699,0.0219 0.09712,0.10044 0.03013,0.0785 0.03574,0.16182 0.01245,0.1851 -0.02328,0.0233 -0.06699,-0.0219 -0.09712,-0.10044 z m 42.544984,-0.34637 c -0.005,-0.14859 0.0297,-0.29371 0.0762,-0.32249 0.0974,-0.0602 0.0974,0.077 0,0.381 -0.0647,0.20214 -0.0682,0.1995 -0.0762,-0.0585 z m 1.1934,-0.40716 c 0.002,-0.1397 0.0207,-0.1866 0.0422,-0.10422 0.0215,0.0824 0.0201,0.19667 -0.003,0.254 -0.0232,0.0573 -0.0408,-0.0101 -0.039,-0.14978 z m -1.15224,-1.10705 c 0.12432,-0.51098 0.19329,-0.6077 0.19903,-0.27915 0.003,0.18081 -0.0491,0.3523 -0.12696,0.41695 -0.11648,0.0967 -0.12511,0.0802 -0.0721,-0.1378 z m 0.30243,-0.96728 c 0,-0.11642 0.0192,-0.16405 0.0427,-0.10584 0.0235,0.0582 0.0235,0.15346 0,0.21167 -0.0235,0.0582 -0.0427,0.0106 -0.0427,-0.10583 z m 1.0515,-0.635 c 0.0312,-0.32597 0.071,-0.60855 0.0886,-0.62795 0.0769,-0.085 0.0205,0.97951 -0.058,1.09361 -0.0614,0.0894 -0.0705,-0.0483 -0.0306,-0.46566 z m 0.51585,-0.59267 c 0.0642,-0.41852 0.11304,-0.48978 0.11132,-0.16228 -6.8e-4,0.13582 -0.0377,0.3041 -0.0823,0.37395 -0.0551,0.0865 -0.0644,0.019 -0.029,-0.21167 z m -1.3496,-0.48683 c -0.0232,-0.15135 -0.01,-0.33232 0.0302,-0.40217 0.0478,-0.0839 0.0731,0.009 0.0748,0.27517 0.003,0.46568 -0.0444,0.52298 -0.10498,0.127 z m 1.86043,-0.35984 c 0.0879,-1.17776 0.17979,-1.61424 0.14261,-0.67733 -0.0185,0.46567 -0.0695,0.96097 -0.11337,1.10067 -0.0569,0.18117 -0.0653,0.0598 -0.0292,-0.42334 z m -0.51491,0.14817 c 0.0797,-0.3324 0.1167,-0.34357 0.1167,-0.0353 0,0.14746 -0.0388,0.26811 -0.0863,0.26811 -0.0512,0 -0.0636,-0.0946 -0.0304,-0.23283 z m -0.47597,-0.39717 c 0,-0.2123 0.0381,-0.386 0.0847,-0.386 0.0466,0 0.0847,0.15015 0.0847,0.33367 0,0.18352 -0.0381,0.35722 -0.0847,0.386 -0.0517,0.032 -0.0847,-0.0979 -0.0847,-0.33367 z m 0.59267,-0.137 c 0,-0.0493 -0.0381,-0.0661 -0.0847,-0.0373 -0.0505,0.0312 -0.0847,-0.0713 -0.0847,-0.254 0,-0.16848 0.0354,-0.28446 0.0786,-0.25774 0.0432,0.0267 0.0952,-0.0377 0.11547,-0.14317 0.0203,-0.10547 0.042,0.0273 0.0484,0.29508 0.006,0.26775 -0.008,0.48683 -0.0308,0.48683 -0.0233,0 -0.0423,-0.0403 -0.0423,-0.0897 z m -1.42597,-0.16433 c 0,-0.11642 0.0192,-0.16404 0.0427,-0.10583 0.0235,0.0582 0.0235,0.15345 0,0.21166 -0.0235,0.0582 -0.0427,0.0106 -0.0427,-0.10583 z m 0.74993,-0.86284 c 7.1e-4,-0.061 0.0382,-0.16798 0.0834,-0.23783 0.0667,-0.10325 0.0823,-0.0923 0.0834,0.0585 6.8e-4,0.10203 -0.0368,0.20906 -0.0834,0.23783 -0.0466,0.0288 -0.0841,0.002 -0.0834,-0.0585 z m -0.91299,-0.5765 c 0,-0.16298 0.0174,-0.22965 0.0387,-0.14816 0.0213,0.0815 0.0213,0.21484 0,0.29633 -0.0213,0.0815 -0.0387,0.0148 -0.0387,-0.14817 z m 1.2766,-0.46566 c 5.1e-4,-0.2794 0.0163,-0.38349 0.0351,-0.23132 0.0189,0.15218 0.0185,0.38078 -8.6e-4,0.508 -0.0193,0.12723 -0.0347,0.003 -0.0343,-0.27668 z m -57.670878,-0.0423 c 0,-0.11641 0.01922,-0.16404 0.0427,-0.10583 0.02349,0.0582 0.02349,0.15346 0,0.21167 -0.02349,0.0582 -0.0427,0.0106 -0.0427,-0.10584 z m 56.322568,-1.05319 c -0.0257,-0.067 -0.007,-0.19084 0.0424,-0.27516 0.0758,-0.13028 0.0896,-0.11197 0.0918,0.12185 0.003,0.29027 -0.0559,0.35726 -0.13416,0.15331 z m 0.87873,-0.13214 c -0.0343,-0.11642 -0.0617,-0.32597 -0.0609,-0.46567 0.001,-0.21486 0.0148,-0.23094 0.0885,-0.10437 0.0479,0.0823 0.0753,0.29185 0.0609,0.46567 -0.0236,0.28508 -0.0323,0.29531 -0.0885,0.10437 z m -0.99638,-1.31939 c -2.6e-4,-0.0427 -0.0755,-0.59196 -0.16727,-1.22061 -0.13479,-0.92321 -0.22318,-1.25696 -0.45966,-1.73567 -0.28747,-0.58189 -0.50342,-1.56257 -0.319,-1.44859 0.14197,0.0877 0.58076,1.30591 0.72828,2.02186 0.15902,0.77169 0.33163,2.34703 0.26453,2.41413 -0.0256,0.0256 -0.0467,0.0116 -0.0469,-0.0311 z m -56.113005,-0.50094 c -3.22e-4,-0.23284 0.0285,-0.53764 0.06405,-0.67734 l 0.06463,-0.254 0.0037,0.29634 c 0.0021,0.16298 -0.02677,0.46778 -0.06405,0.67733 l -0.06779,0.381 -5.85e-4,-0.42333 z m 13.031419,-0.889 c 0,-0.11642 0.01922,-0.16404 0.04271,-0.10584 0.02349,0.0582 0.02349,0.15346 0,0.21167 -0.02349,0.0582 -0.04271,0.0106 -0.04271,-0.10583 z m 0.09265,-0.55034 c 9.4e-4,-0.18626 0.01828,-0.25249 0.03853,-0.14717 0.02025,0.10531 0.01948,0.25771 -0.0017,0.33866 -0.02119,0.081 -0.03776,-0.005 -0.03682,-0.19149 z m 43.842676,-0.17638 c 0.004,-0.0986 0.0241,-0.1187 0.0512,-0.0512 0.0245,0.0611 0.0215,0.13415 -0.007,0.16228 -0.0281,0.0281 -0.0481,-0.0219 -0.0445,-0.11112 z m -0.16951,-0.63446 c -0.12327,-0.5748 -0.0569,-0.64116 0.0782,-0.0782 0.0571,0.23786 0.0841,0.4521 0.0601,0.47608 -0.024,0.024 -0.0862,-0.15508 -0.1383,-0.39792 z m -56.60036,-0.24749 c 0.118137,-0.9469 0.708811,-2.82283 0.971554,-3.08558 0.14697,-0.14697 0.08782,0.11005 -0.189514,0.82348 -0.148758,0.38267 -0.396268,1.13392 -0.550022,1.66943 -0.156673,0.54569 -0.258658,0.8062 -0.232018,0.59267 z m 13.088544,0.0847 c 0,-0.11642 0.01922,-0.16404 0.0427,-0.10584 0.02349,0.0582 0.02349,0.15346 0,0.21167 -0.02349,0.0582 -0.0427,0.0106 -0.0427,-0.10583 z m 43.163536,-1.07409 c -0.10441,-0.3173 -0.26123,-0.76741 -0.34849,-1.00025 -0.11522,-0.30745 -0.12438,-0.37944 -0.0334,-0.26298 0.14744,0.18885 0.67599,1.73593 0.61418,1.79774 -0.0233,0.0233 -0.12783,-0.21721 -0.23224,-0.53451 z m -42.949671,0.26975 c 0.11975,-0.60587 1.243657,-3.59056 1.488793,-3.95369 0.354893,-0.52573 0.403457,-0.44834 0.0792,0.1262 -0.141507,0.25074 -0.455145,1.04305 -0.696975,1.76069 -0.440774,1.30802 -0.968589,2.56045 -0.871021,2.0668 z m 43.428901,-0.51127 c -0.029,-0.0757 -0.0504,-0.18208 -0.0474,-0.23648 0.003,-0.0544 0.0419,-0.008 0.0865,0.10388 0.0446,0.11154 0.066,0.21795 0.0474,0.23648 -0.0185,0.0185 -0.0575,-0.0282 -0.0865,-0.10388 z m -0.41968,-1.02684 c -0.031,-0.031 -0.0553,-0.11677 -0.0539,-0.1905 0.002,-0.11009 0.0186,-0.10643 0.0924,0.0205 0.0912,0.15678 0.0647,0.27334 -0.0386,0.17004 z m -0.26267,-0.68073 c -0.0459,-0.12067 -0.0362,-0.1304 0.0474,-0.0474 0.0579,0.0574 0.0839,0.12575 0.0578,0.15182 -0.0261,0.0261 -0.0734,-0.0209 -0.10521,-0.10442 z m -55.303294,-0.23963 c 0.02747,-0.0716 0.112346,-0.34481 0.188622,-0.60719 0.07628,-0.26238 0.17262,-0.51814 0.214098,-0.56836 0.04148,-0.0502 0.287131,-0.41459 0.545895,-0.80971 0.55079,-0.84104 0.624822,-0.92806 0.397216,-0.46693 -0.09194,0.18626 -0.273626,0.6137 -0.403751,0.94987 -0.136336,0.3522 -0.273333,0.58849 -0.323301,0.55761 -0.05326,-0.0329 -0.06506,0.003 -0.03059,0.0927 0.08587,0.22377 -0.344636,0.98219 -0.557527,0.98219 -0.04433,0 -0.05813,-0.0586 -0.03066,-0.13014 z m 54.381804,-0.59324 c -0.0823,-0.17247 -0.13167,-0.33146 -0.10982,-0.3533 0.0569,-0.0569 0.32215,0.47851 0.28792,0.58119 -0.0157,0.0471 -0.0959,-0.0554 -0.1781,-0.22789 z m 0.48887,0.008 c -0.0732,-0.17516 -0.11678,-0.33477 -0.0969,-0.35469 0.0199,-0.0199 0.10161,0.1016 0.18153,0.27003 0.0799,0.16843 0.12352,0.32804 0.0969,0.35469 -0.0267,0.0267 -0.10833,-0.0949 -0.18152,-0.27003 z m -2.54049,-1.53036 c -0.18388,-0.30108 -0.368,-0.54751 -0.40914,-0.54762 -0.125,-3.4e-4 -0.91195,-0.84186 -0.86233,-0.92213 0.0255,-0.0412 -0.0105,-0.12196 -0.0798,-0.17951 -0.0693,-0.0575 -0.1248,-0.16664 -0.12325,-0.24242 0.002,-0.10659 0.041,-0.0919 0.17145,0.0647 0.31316,0.37604 0.26031,0.11695 -0.0852,-0.41759 -0.18869,-0.29196 -0.34308,-0.56988 -0.34308,-0.6176 0,-0.11819 0.56196,0.53564 0.96131,1.11846 0.25339,0.3698 0.29714,0.48213 0.19574,0.5026 -0.0998,0.0202 -0.0531,0.12872 0.19836,0.46097 0.35738,0.47219 0.7986,1.23921 0.74415,1.29366 -0.0186,0.0187 -0.18435,-0.21244 -0.36823,-0.51351 z m 0.86225,-1.562 c -0.23966,-0.36216 -0.30224,-0.57719 -0.0868,-0.29815 0.15629,0.2024 0.38993,0.635 0.34295,0.635 -0.0183,0 -0.13357,-0.15158 -0.25618,-0.33685 z m -5.2183,-0.27699 c -0.24751,-0.29104 -0.52297,-0.6513 -0.61214,-0.80057 -0.0892,-0.14928 -0.23214,-0.29364 -0.31772,-0.32081 -0.14639,-0.0465 -0.3468,-0.29097 -0.55555,-0.67778 -0.0503,-0.0931 -0.15957,-0.28364 -0.24291,-0.42334 -0.0857,-0.1437 0.0636,-0.024 0.34392,0.27577 0.27249,0.29136 0.53559,0.52949 0.58467,0.52916 0.0491,-3.4e-4 0.22052,0.13848 0.381,0.30846 0.17292,0.18317 0.23142,0.28772 0.14361,0.25666 -0.20626,-0.0729 -0.19109,-0.0332 0.16933,0.44327 0.33538,0.4434 0.64639,0.93835 0.58961,0.93835 -0.0186,0 -0.2363,-0.23812 -0.48382,-0.52917 z m -1.01312,-0.76218 c -0.89606,-1.14289 -1.58386,-1.70448 -1.99801,-1.63134 -0.22738,0.0401 -0.38459,-0.0496 -1.27,-0.725 -1.13778,-0.86791 -1.87252,-1.56954 -1.54547,-1.47582 0.31241,0.0895 1.53433,0.68816 1.72031,0.8428 0.16743,0.13923 0.1672,0.14022 -0.0212,0.0884 -0.39738,-0.10935 -0.16879,0.13003 0.36947,0.38692 0.30798,0.14698 0.6985,0.39235 0.86783,0.54525 0.16933,0.15291 0.51108,0.43065 0.75944,0.61721 0.49436,0.37132 1.25645,1.22859 1.53881,1.73099 0.0987,0.1756 0.16749,0.3192 0.15287,0.3191 -0.0146,-8e-5 -0.27296,-0.31442 -0.57408,-0.6985 z m -30.687032,-0.2403 c 0.181042,-0.1854 0.343231,-0.29491 0.360421,-0.24334 0.04194,0.12583 -0.296872,0.47774 -0.514841,0.53474 -0.132749,0.0347 -0.09564,-0.0353 0.15442,-0.2914 z m 34.203312,0.2018 c -0.046,-0.12066 -0.0362,-0.13039 0.0474,-0.0474 0.0579,0.0574 0.0839,0.12575 0.0578,0.15181 -0.0261,0.0261 -0.0734,-0.0209 -0.10521,-0.10442 z m -0.95556,-0.29998 c -0.20304,-0.26254 -0.20041,-0.34182 0.005,-0.15458 0.12393,0.1129 0.22532,0.21767 0.22532,0.23284 0,0.07 -0.15705,0.0166 -0.23045,-0.0783 z m -32.335297,-0.88177 c 0.03014,-0.0542 0.0098,-0.11359 -0.0451,-0.1319 -0.05495,-0.0183 0.135316,-0.2143 0.422805,-0.43552 0.287489,-0.22121 0.522706,-0.37011 0.522706,-0.33087 0,0.0392 -0.21492,0.27959 -0.4776,0.53412 -0.26268,0.25452 -0.452943,0.4184 -0.422806,0.36417 z m 31.369617,-0.51523 c -0.10533,-0.13429 -0.10233,-0.13728 0.032,-0.032 0.14103,0.11061 0.18588,0.18013 0.1162,0.18013 -0.0176,0 -0.0843,-0.0667 -0.14817,-0.14816 z m 2.38897,-0.47189 -0.28715,-0.35361 0.32609,0.31468 c 0.17935,0.17307 0.30857,0.3322 0.28715,0.35361 -0.0214,0.0214 -0.16816,-0.12019 -0.32609,-0.31468 z m -5.80718,0.0274 c -0.0288,-0.0466 -0.0142,-0.0847 0.0323,-0.0847 0.0466,0 0.10821,0.0381 0.13699,0.0847 0.0288,0.0466 0.0142,0.0847 -0.0323,0.0847 -0.0466,0 -0.10821,-0.0381 -0.13699,-0.0847 z m 8.8364,-1.79686 c -0.11233,-0.15261 -0.31332,-0.4394 -0.44666,-0.63731 -0.25045,-0.37174 -0.36188,-0.46328 -0.26885,-0.22086 0.0446,0.11621 0.0322,0.12144 -0.0756,0.032 -0.14991,-0.12442 -0.17577,-0.29455 -0.0312,-0.20519 0.0611,0.0377 0.0748,0.0232 0.0365,-0.0387 -0.0337,-0.0545 -0.093,-0.0795 -0.13182,-0.0555 -0.0814,0.0503 -1.13774,-1.0573 -1.63381,-1.71301 -0.18495,-0.24448 -0.36966,-0.4445 -0.41047,-0.4445 -0.0408,0 -0.54732,-0.35243 -1.12559,-0.78317 -0.57826,-0.43074 -1.26667,-0.91086 -1.52981,-1.06694 -0.78725,-0.46695 -0.44398,-0.41803 0.5064,0.0722 1.14018,0.58811 1.60041,0.94503 2.62004,2.03194 0.45869,0.48895 0.88547,0.90132 0.9484,0.91637 0.0629,0.0151 0.11443,0.0833 0.11443,0.1516 0,0.16216 0.34684,0.6303 0.42925,0.57937 0.0994,-0.0614 1.32569,1.53661 1.24279,1.6195 -0.0219,0.0219 -0.13166,-0.0851 -0.24398,-0.2377 z m -9.62429,-1.51787 c -0.16178,-0.10359 -0.26153,-0.22706 -0.23638,-0.29259 0.0239,-0.0624 -0.0396,-0.17157 -0.14112,-0.2427 -0.10154,-0.0711 -0.14302,-0.12932 -0.0922,-0.12932 0.12328,0 0.96124,0.67056 0.96124,0.76921 0,0.12721 -0.19398,0.0859 -0.49156,-0.1046 z m -21.267778,-0.6881 c 0,-0.12066 0.237685,-0.49293 0.376093,-0.58904 0.04927,-0.0342 0.194349,-0.0628 0.322407,-0.0635 0.309277,-0.002 0.299614,0.17289 -0.02768,0.50019 -0.26307,0.26307 -0.670821,0.35567 -0.67082,0.15235 z m 1.397,-0.65384 c 0.02878,-0.0466 0.08818,-0.0847 0.131997,-0.0847 0.04382,0 0.07967,0.0381 0.07967,0.0847 0,0.0466 -0.0594,0.0847 -0.131997,0.0847 -0.0726,0 -0.10845,-0.0381 -0.07967,-0.0847 z m 1.01523,-0.35983 c 0.05108,-0.21726 -0.01132,-0.33315 -0.25323,-0.47033 -0.152505,-0.0865 -0.141435,-0.0963 0.111399,-0.0986 0.553203,-0.005 0.788401,0.31616 0.453434,0.6193 -0.221597,0.20055 -0.365141,0.17734 -0.311603,-0.0504 z m 1.359053,0.027 c -0.06261,-0.10131 0.09666,-0.20169 0.209431,-0.13199 0.09469,0.0585 0.03253,0.21081 -0.08605,0.21081 -0.04107,0 -0.09659,-0.0355 -0.123384,-0.0788 z m 5.03405,-0.47191 c 0,-0.017 0.03716,-0.12864 0.08257,-0.24809 0.09897,-0.2603 0.26116,-0.27942 0.405781,-0.0479 0.05816,0.0931 0.09565,0.16934 0.08331,0.16934 -0.01234,0 -0.146016,0.0354 -0.29705,0.0787 -0.151034,0.0433 -0.274608,0.0649 -0.274608,0.0479 z m 0.344944,-0.62421 c -0.285556,-0.0798 -0.304753,-0.21695 -0.04682,-0.33447 0.347541,-0.15835 0.691916,-0.12261 0.838771,0.0871 0.10105,0.14427 0.10691,0.2013 0.026,0.25271 -0.123304,0.0783 -0.528101,0.0757 -0.817919,-0.005 z m -9.06561,-0.0443 c 0,-0.0183 0.05913,-0.056 0.131397,-0.0837 0.07535,-0.0289 0.109332,-0.0147 0.07967,0.0333 -0.04972,0.0804 -0.211067,0.11899 -0.211067,0.0504 z m 14.647331,-0.1 c -0.21137,-0.12762 -0.21122,-0.12776 0.1045,-0.0991 0.17389,0.0158 0.32768,-0.006 0.34176,-0.0481 0.0141,-0.0422 0.0765,-0.0155 0.1387,0.0595 0.0956,0.11523 0.093,0.13628 -0.0173,0.13628 -0.0718,0 -0.18119,0.0178 -0.2432,0.0396 -0.062,0.0218 -0.20801,-0.0179 -0.32443,-0.0882 z m -13.123331,-0.19483 c 0.557459,-0.24044 1.103229,-0.40823 1.003524,-0.30853 -0.07119,0.0712 -1.359225,0.55217 -1.469191,0.54863 -0.04657,-10e-4 0.162983,-0.10955 0.465667,-0.2401 z m 14.885561,0.14289 c -0.21574,-0.0574 -0.2979,-0.12006 -0.26611,-0.20292 0.0648,-0.16896 0.18988,-0.14959 0.57822,0.0896 0.36632,0.22563 0.25789,0.265 -0.31211,0.11333 z m -9.09789,-0.30337 c 0.03095,-0.0501 0.170133,-0.11606 0.3093,-0.14663 0.348603,-0.0766 0.316908,-0.19113 -0.105153,-0.38009 -0.264218,-0.11829 -0.321994,-0.17425 -0.220237,-0.2133 0.139413,-0.0535 0.944512,0.30549 1.043189,0.46516 0.06266,0.10138 -0.248093,0.23234 -0.736707,0.31047 -0.237946,0.038 -0.329016,0.0269 -0.290392,-0.0356 z m 7.59459,-0.36571 c -0.57856,-0.11346 -0.59388,-0.13831 -0.0896,-0.14534 0.25611,-0.004 0.56091,0.0471 0.67733,0.11258 l 0.21167,0.11906 -0.21167,-0.006 c -0.11642,-0.003 -0.3809,-0.0395 -0.58774,-0.08 z m -12.831928,-0.1617 c 0.02878,-0.0466 0.154854,-0.0841 0.280164,-0.0834 0.178203,10e-4 0.20017,0.0192 0.100836,0.0834 -0.167289,0.10811 -0.447816,0.10811 -0.381,0 z m 25.146008,-0.0988 c -0.23508,-0.13002 -0.55033,-0.4237 -0.55033,-0.51269 0,-0.0407 0.17145,0.044 0.381,0.18816 0.20955,0.14418 0.381,0.29841 0.381,0.34274 0,0.0982 -0.001,0.0981 -0.21167,-0.0182 z m -21.07295,-0.20445 c -0.09694,-0.25262 -0.05125,-0.31553 0.117942,-0.16241 0.09313,0.0843 0.169333,0.18544 0.169333,0.22479 0,0.12684 -0.234178,0.076 -0.287275,-0.0624 z m 17.60161,-0.28942 c -0.0288,-0.0466 -0.0142,-0.0847 0.0323,-0.0847 0.0466,0 0.10821,0.0381 0.13699,0.0847 0.0288,0.0466 0.0142,0.0847 -0.0323,0.0847 -0.0466,0 -0.10821,-0.0381 -0.13699,-0.0847 z m -18.203335,-0.0847 c -0.02878,-0.0466 -0.01198,-0.0847 0.03734,-0.0847 0.04931,0 0.08966,0.0381 0.08966,0.0847 0,0.0466 -0.0168,0.0847 -0.03734,0.0847 -0.02053,0 -0.06088,-0.0381 -0.08966,-0.0847 z m 18.669085,-0.0384 -0.21158,-0.11709 0.22793,-0.0572 c 0.26,-0.0652 0.4069,-0.002 0.4069,0.1754 0,0.15173 -0.14779,0.15135 -0.42325,-0.001 z m -2.03208,-0.78474 c -0.0699,-0.0263 -0.21801,-0.0815 -0.32925,-0.12268 -0.11123,-0.0412 -0.18346,-0.0937 -0.1605,-0.11662 0.0229,-0.0229 0.20921,0.0326 0.4139,0.12339 0.33478,0.14853 0.39108,0.23457 0.0759,0.11591 z m -1.143,-0.19283 c -0.0288,-0.0466 -0.0142,-0.0847 0.0323,-0.0847 0.0466,0 0.10821,0.0381 0.13699,0.0847 0.0288,0.0466 0.0142,0.0847 -0.0323,0.0847 -0.0466,0 -0.10821,-0.0381 -0.13699,-0.0847 z m -17.907005,-0.0692 c 0.06985,-0.0425 0.5842,-0.27985 1.143,-0.52739 0.5588,-0.24755 1.049537,-0.47861 1.090526,-0.51348 0.04099,-0.0349 -0.412497,0.0869 -1.00775,0.27055 -0.595252,0.18367 -1.096523,0.31971 -1.113933,0.30229 -0.01741,-0.0174 0.370511,-0.21116 0.862049,-0.43057 0.902901,-0.40302 2.011446,-0.71237 3.174775,-0.88595 0.949702,-0.14171 3.200638,-0.34691 3.682998,-0.33575 l 0.42333,0.01 -0.55033,0.0738 c -3.227105,0.4329 -4.420904,0.73019 -6.519331,1.62346 -0.878403,0.37392 -1.445456,0.57161 -1.185334,0.41323 z m 17.140015,-0.39373 c -0.16167,-0.12228 -0.1615,-0.12435 0.01,-0.127 0.0959,-0.001 0.24827,0.0532 0.33867,0.12161 0.16167,0.12228 0.1615,0.12436 -0.01,0.127 -0.0959,0.001 -0.24828,-0.0532 -0.33867,-0.12161 z m -1.46261,-0.37321 c -0.09,-0.0571 -0.0842,-0.0826 0.0288,-0.12598 0.15628,-0.06 0.2958,-0.003 0.2958,0.12049 0,0.0985 -0.17329,0.10141 -0.3246,0.005 z m 0.23993,-0.41495 c -0.27701,-0.12774 -0.28317,-0.13882 -0.0944,-0.16981 0.12597,-0.0207 0.26841,0.0333 0.37865,0.14356 0.20748,0.20747 0.12521,0.21507 -0.28424,0.0262 z m -8.04334,-0.0189 c 0.16756,-0.10828 0.762,-0.10828 0.762,0 0,0.0466 -0.20002,0.0841 -0.4445,0.0834 -0.31821,-9.2e-4 -0.40841,-0.0246 -0.3175,-0.0834 z m 8.18434,-0.29696 c -0.22514,-0.0619 -0.43469,-0.13911 -0.46567,-0.17165 -0.0722,-0.0758 0.44038,0.0336 0.82964,0.17702 0.3873,0.14273 0.16292,0.13942 -0.36397,-0.005 z m -22.620001,-0.0417 c 0.02878,-0.0466 0.06913,-0.0847 0.08966,-0.0847 0.02054,0 0.03734,0.0381 0.03734,0.0847 0,0.0466 -0.04035,0.0847 -0.08966,0.0847 -0.04931,0 -0.06612,-0.0381 -0.03734,-0.0847 z m 25.141011,-0.0396 c -0.0904,-0.0684 -0.12624,-0.12431 -0.0797,-0.12431 0.0466,0 0.15863,0.0559 0.24902,0.12431 0.0904,0.0684 0.12625,0.1243 0.0797,0.1243 -0.0466,0 -0.15862,-0.0559 -0.24902,-0.1243 z m -2.15401,-0.12692 c -0.16298,-0.0877 -0.47727,-0.1849 -0.69841,-0.21605 -0.22114,-0.0311 -0.42711,-0.0972 -0.45773,-0.1467 -0.1057,-0.17103 0.71851,0.0112 1.21893,0.26947 0.26815,0.1384 0.43039,0.25188 0.36054,0.25217 -0.0699,2.8e-4 -0.26035,-0.0712 -0.42333,-0.15889 z m -1.70921,-0.484 c 0.0611,-0.0245 0.13414,-0.0215 0.16228,0.007 0.0281,0.0281 -0.0219,0.0481 -0.11113,0.0445 -0.0986,-0.004 -0.11869,-0.0241 -0.0512,-0.0512 z m -1.03141,-0.62207 c 0.0578,-0.0578 0.15645,-0.0596 0.2921,-0.005 0.19249,0.0769 0.18722,0.0822 -0.0873,0.0873 -0.20049,0.004 -0.26474,-0.022 -0.20485,-0.0819 z m -13.854048,-0.25142 c 0,-0.0466 0.04035,-0.0847 0.08966,-0.0847 0.04931,0 0.06612,0.0381 0.03734,0.0847 -0.02878,0.0466 -0.06913,0.0847 -0.08966,0.0847 -0.02053,0 -0.03734,-0.0381 -0.03734,-0.0847 z m 7.764348,0.0315 c -0.0908,-0.0908 0.0211,-0.19694 0.15398,-0.14597 0.0691,0.0265 0.14655,-0.0125 0.17568,-0.0884 0.0287,-0.0747 0.1327,-0.13578 0.2312,-0.13578 0.17808,0 0.17815,9e-4 0.0121,0.16049 -0.18914,0.18178 -0.49055,0.29206 -0.57297,0.20963 z m -0.927515,-0.2487 c -0.12082,-0.12363 -0.06234,-0.19288 0.211665,-0.25062 0.15134,-0.0319 0.38947,-0.10749 0.52917,-0.16799 0.33629,-0.14562 0.889,-0.22074 0.889,-0.12082 0,0.0436 -0.0843,0.0793 -0.18732,0.0793 -0.10303,0 -0.26495,0.0963 -0.35984,0.21406 -0.12839,0.15932 -0.28076,0.22645 -0.59584,0.26253 -0.23284,0.0267 -0.45191,0.0192 -0.486835,-0.0165 z"
        id="path826" />
      <path style="fill:none;stroke-width:15.77853203;stroke-linejoin:miter;stroke-miterlimit:4;stroke-opacity:1;"
        d="m 94.217765,122.39929 c 13.630905,-0.37761 20.147405,3.04408 20.147405,3.04408 l 9.35458,13.03968 0.84651,14.34617 -4.25882,12.10226 c 0,0 -12.74124,10.61418 -13.41833,10.91389 -0.67709,0.2997 -16.83064,1.0989 -16.83064,1.0989 l -11.994246,-7.39255 -6.093854,-10.78912 -0.193456,-11.78811 3.4822,-9.98992 6.190582,-8.29163 4.739663,-6.08 z"
        class="path-o-mark" />
    </g>
  </svg>