<svg viewBox="0 0 62.09945 65.021797" class="svg-x-mark" xmlns="http://www.w3.org/2000/svg">
    <g transform="translate(-66.398858,-117.95947)">
      <path id="path826" style="fill:#000;stroke-width:1"
        d="m 44.748047,203.29883 c 0.351608,0.0374 0.640351,0.16293 0.787109,0.40039 0.661913,1.071 -1.916433,3.27694 -2.798828,2.39453 -0.361905,-0.36189 -0.658203,-0.98527 -0.658203,-1.38477 0,-0.84109 1.615098,-1.52251 2.669922,-1.41015 z m 44.138672,-11.14258 c -1.481995,0.29524 -3.159769,2.2332 -2.367188,3.51563 0.998098,1.61494 3.532525,1.33284 4.22461,-0.47071 0.330769,-0.86196 0.0879,-2.08008 -0.539063,-2.70703 -0.35186,-0.35186 -0.824361,-0.4363 -1.318359,-0.33789 z m -0.03906,-3.22461 c -0.325004,0.12376 -0.695989,0.37118 -1.035156,0.71289 -0.980266,0.98763 -0.864652,1.10325 0.560547,0.56055 0.986226,-0.37554 1.540302,-0.93611 1.232422,-1.24414 -0.153944,-0.15396 -0.432808,-0.15306 -0.757813,-0.0293 z m 2.957032,-6.04102 c -0.07651,-0.0878 -0.314215,0.0774 -0.722657,0.48243 -0.638226,0.63295 -0.829291,2.23565 -0.449219,3.75 0.425046,1.69353 1.343391,2.64648 2.554688,2.64648 2.551245,0 2.411841,-2.70033 -0.181641,-3.52344 -1.416189,-0.4495 -1.871048,-1.18416 -1.439453,-2.31836 0.231436,-0.60816 0.314788,-0.94931 0.238282,-1.03711 z M 193.07812,42.769531 c -0.0516,-0.05162 -0.45697,0.249173 -1.25,0.871094 -0.96248,0.754847 -1.74999,1.542504 -1.75,1.75 0,0.82303 0.82256,0.294657 2.12891,-1.371094 0.62192,-0.79302 0.92271,-1.198381 0.87109,-1.25 z m -5.76546,15.298678 c -0.31256,0.24907 -0.33411,0.956598 -0.33411,2.335937 0,2.22531 0.24454,2.404384 2.00001,1.464831 2.40669,-1.288025 2.56638,-2.57091 0.41995,-3.394545 -1.16791,-0.448138 -1.77336,-0.655483 -2.08596,-0.406223 z m -77.16796,30.77537 29.66017,33.050801 2.13672,-2.76371 c 1.17494,-1.51993 5.21541,-6.81169 8.97849,-11.7617 3.76309,-4.95001 8.0163,-10.092396 9.45116,-11.425775 1.43498,-1.33338 2.60743,-3.085795 2.60743,-3.894539 0,-0.808743 0.94019,-2.418255 2.08792,-3.576151 3.90508,-3.939553 14.52397,-18.087647 17.15233,-22.853518 2.32872,-4.222564 2.4534,-4.915805 1.11915,-6.250016 -0.88055,-0.880592 -1.03789,-1.499981 -0.38086,-1.499981 1.54367,0 3.87205,-5.857739 3.25977,-8.199232 -0.29027,-1.110274 -1.07558,-1.695269 -1.86917,-1.390639 -1.85711,0.712554 -1.73994,-1.857903 0.1561,-3.431622 1.2994,-1.078451 1.32226,-1.504252 0.15231,-2.873046 -0.75526,-0.883616 -1.72777,-2.505487 -2.16212,-3.60548 -0.75579,-1.914331 -0.81626,-1.900347 -1.40624,0.326173 l -0.61716,2.326186 -2.44728,-2.607421 c -1.34635,-1.433121 -3.03217,-2.381442 -3.74608,-2.107427 -0.71388,0.274016 -1.29884,0.16441 -1.29884,-0.244157 0,-1.464416 -15.85281,-8.466482 -17.93556,-7.921852 -1.13484,0.296693 -2.06445,0.108472 -2.06445,-0.417978 0,-2.345575 -7.2124,4.890444 -12.11524,12.15428 -2.96118,4.387163 -5.72224,7.980586 -6.13478,7.984366 -0.41246,0.0037 -0.74997,0.543798 -0.74997,1.201171 0,0.657411 -1.20763,2.457411 -2.68554,4.000026 -1.47772,1.542576 -2.16873,2.804674 -1.53517,2.804674 0.63352,0 1.632,-0.899981 2.2207,-1.999975 1.20567,-2.252825 3.50831,-2.767106 2.67579,-0.597657 -0.7745,2.018306 0.29669,2.68354 2.45703,1.527307 1.0277,-0.549959 1.86717,-0.623395 1.86717,-0.164031 3e-5,1.997783 -2.73963,3.236334 -7.16406,3.236334 -3.72155,0 -4.9965,0.43166 -5.82225,1.974576 -0.90535,1.691641 -0.68342,2.068687 1.54881,2.628926 2.25185,0.565191 2.41433,0.84737 1.18749,2.074205 -0.781,0.781039 -2.36318,1.491212 -3.5156,1.578142 -1.15238,0.08693 -1.85132,0.553776 -1.55273,1.037102 0.29874,0.483364 -0.93825,2.408088 -2.75,4.277329 -1.81172,1.869241 -3.04197,3.651402 -2.73243,3.960945 0.30943,0.309543 1.31379,-0.186709 2.23047,-1.103509 0.91665,-0.916497 1.96945,-1.364522 2.33985,-0.994129 0.37055,0.370394 0.2372,0.98657 -0.29688,1.369134 -1.14081,0.817285 -3.10617,3.850356 -4.375,6.751937 -0.49459,1.130911 -2.48245,3.263471 -4.41601,4.738281 z m 4.27579,71.982051 -33.404305,-43.17385 c -0.506869,0.6864 -1.225576,1.4756 -2.402347,2.53516 -2.94426,2.65103 -3.123859,3.13152 -1.919921,5.0996 1.176888,1.92386 1.048369,2.47325 -1.124999,4.80862 -1.349809,1.45043 -2.271568,3.1333 -2.046875,3.73825 0.224693,0.60495 -0.279723,1.67123 -1.123049,2.37109 -0.843318,0.69993 -1.535153,1.71651 -1.535153,2.25785 0,0.54134 -2.250002,3.09589 -5.000001,5.67772 -2.75,2.58183 -5.000002,5.2529 -5.000002,5.93556 0,0.68266 -0.45439,1.78492 -1.011719,2.44921 -0.557329,0.66429 -2.499069,3.14241 -4.314452,5.50586 -3.364081,4.37972 -8.161765,7.63714 -9.777343,6.63867 -0.865799,-0.53511 -1.28296,0.82416 -0.990236,3.22265 0.07782,0.63761 -1.003514,2.05984 -2.402343,3.16014 -1.502858,1.18216 -2.058841,2.16136 -1.359375,2.39456 1.793336,0.59777 -2.817793,5.41307 -8.574218,8.95506 -4.190494,2.57843 -4.730959,3.24159 -3.433595,4.19728 0.847147,0.62407 1.35075,1.6953 1.119141,2.3828 -0.285619,0.84782 0.812202,1.27642 3.412112,1.33009 2.108338,0.0435 3.157028,0.32504 2.332029,0.62498 -2.651497,0.96484 -6.999999,5.61268 -6.999999,7.48245 0,0.99711 -0.675001,1.81444 -1.5,1.81444 -0.824999,0 -1.5,0.44999 -1.5,0.99998 0,0.55 0.450002,0.99806 0.999999,0.99806 2.037827,0 0.914982,1.80598 -1.5,2.4121 -1.375,0.34507 -2.499999,1.15393 -2.499999,1.7969 0,2.24564 -4.485694,7.7986 -5.876953,7.27536 -0.75738,-0.28497 -1.979169,0.2778 -2.716797,1.25001 -2.093907,2.75939 -1.684282,4.04216 1.121095,3.50585 1.787796,-0.34167 3.104274,0.18368 4.5,1.79297 1.085095,1.25117 1.972653,2.65523 1.972653,3.12113 0,0.46579 3.764409,0.84764 8.365236,0.84764 6.816899,0 8.829948,-0.36624 10.876951,-1.97658 3.365802,-2.64749 4.265821,-6.02344 1.605472,-6.02344 -1.160633,0 -1.689733,-0.44594 -1.292969,-1.08786 0.369524,-0.59724 1.554773,-0.85617 2.632811,-0.57422 2.681288,0.70118 13.833169,-5.30211 14.869142,-8.00391 0.456461,-1.19043 1.755409,-2.45737 2.886716,-2.81642 1.131307,-0.35906 4.751388,-3.32297 8.044925,-6.58594 6.120185,-6.06346 10.403323,-7.68148 11.660156,-4.40625 0.897547,2.33899 3.609536,-0.35528 2.970701,-2.95117 -0.696914,-2.83204 6.521965,-10.57421 9.859378,-10.57421 1.322668,0 2.681552,-0.44999 3.021483,-0.99999 0.339931,-0.55 -0.120151,-1.00003 -1.023439,-1.00003 -0.903277,0 -1.446097,-0.56247 -1.205076,-1.25 0.24102,-0.68765 1.599549,-1.12532 3.017578,-0.97262 2.052747,0.22072 3.183047,-0.59448 5.548827,-4.00003 3.89867,-5.61218 8.94268,-10.31399 10.71876,-10.18552 z M 37.363839,210.2338 c 0.824999,0 1.5,0.44807 1.5,0.99806 0,0.55 -0.675001,1.00196 -1.5,1.00196 -0.825003,0 -1.5,-0.45196 -1.5,-1.00196 0,-0.54999 0.674997,-0.99806 1.5,-0.99806 z M 179.68573,45.224429 c 0.18141,0.06916 0.29291,0.250583 0.29291,0.525392 0,0.549997 -0.44999,1.27937 -0.99999,1.61915 -0.54999,0.339779 -1.00002,0.167055 -1.00002,-0.382829 0,-0.549997 0.45003,-1.279332 1.00002,-1.619112 0.27515,-0.170078 0.52577,-0.211653 0.70704,-0.142488 z m -41.14651,2.642608 c 0.24265,0 0.43945,0.451956 0.43945,1.001953 0,0.549996 -0.47611,0.999987 -1.05858,0.999987 -0.58234,0 -0.78119,-0.449991 -0.44141,-0.999987 0.33978,-0.549997 0.81789,-1.001953 1.06054,-1.001953 z"
        transform="matrix(0.26458333,0,0,0.26458333,66.126662,117.40914)" />
      <path
        style="fill:none;stroke-width:16.13958359;stroke-linecap:butt;stroke-linejoin:miter;stroke-miterlimit:4;stroke-opacity:1;"
        d="M 72.633475,177.85768 C 115.09235,126.19172 115.18385,126.10187 115.18385,126.10187" class="path-x-2" />
      <path id="path1016" style="fill:#000;fill-opacity:1;stroke-width:1"
        d="m 194.54688,193.18164 c 0.57742,0.17139 1.27844,0.50143 1.96484,0.95117 1.37284,0.89953 3.09517,1.63672 3.82617,1.63672 0.73104,0 3.03443,1.79806 5.11914,3.99805 5.84304,6.16618 2.41408,5.11697 -7.48242,-2.29102 -1.31717,-0.98593 -3.0581,-2.19868 -3.86719,-2.69531 -0.80765,-0.49663 -1.16067,-1.21436 -0.78125,-1.59375 0.1897,-0.18971 0.64327,-0.17725 1.22071,-0.006 z m -30.32422,-3.29492 c 0.25869,0.10744 0.52414,0.34419 0.73632,0.6875 0.43476,0.70344 2.24884,1.12912 4.15625,0.97266 2.65233,-0.21733 3.47045,0.1342 3.77735,1.625 0.21536,1.0465 -0.28683,2.28335 -1.11719,2.74804 -0.85875,0.48061 -1.29682,1.65959 -1.01562,2.73438 0.65654,2.5107 -1.11841,3.49568 -2.75196,1.52734 -1.06794,-1.28549 -1.06409,-1.71145 0.0254,-2.38476 1.00774,-0.62283 0.54891,-1.5826 -1.91406,-3.99024 -1.78318,-1.74312 -2.94846,-3.46365 -2.58789,-3.82422 0.1803,-0.18032 0.43271,-0.20314 0.69141,-0.0957 z m 31.61328,-11.80078 c -0.5658,0.0596 -0.9925,0.25444 -1.20703,0.60156 -0.4105,0.66425 0.29329,1.08203 1.82421,1.08203 1.61341,0 2.71399,0.70303 3.125,1.99805 0.34912,1.09999 1.43109,2.00195 2.40235,2.00195 2.89848,0 3.1748,-1.15415 0.73633,-3.07226 -2.23294,-1.75632 -5.18348,-2.79004 -6.88086,-2.61133 z M 67.25,25.951172 c -0.269777,-0.153977 -0.519666,-0.165876 -0.707031,0.02148 -0.355276,0.355125 -0.350549,1.579286 0.01172,2.720703 0.71535,2.253884 2.53471,2.852868 2.509765,0.826172 C 69.047593,28.143197 68.05933,26.413104 67.25,25.951172 Z M 44.871094,21.085938 c -0.907036,-0.01131 -1.664748,0.246426 -2.242188,0.789062 -0.522501,0.490998 -2.66,0.892578 -4.75,0.892578 -2.261061,0 -4.53545,0.70874 -5.615234,1.75 -4.811418,4.639862 -10.309726,8.251953 -12.566406,8.251953 -1.374792,0 -2.733472,0.374281 -3.017578,0.833985 -0.284126,0.459741 2.298068,3.947228 5.738281,7.75 8.038658,8.885857 15.029427,18.078953 17.080078,22.460937 0.889096,1.899931 2.264913,4.580086 3.056641,5.955078 0.791726,1.374992 2.587752,4.97498 3.992187,8 6.591352,14.19704 16.154589,26.316789 21.728516,27.541019 1.551579,0.3408 3.282877,1.48378 3.847656,2.53906 0.564775,1.05532 1.637962,1.91797 2.384765,1.91797 1.496119,0 2.878225,2.69651 2.060547,4.01953 -0.284772,0.46076 0.388111,1.12507 1.496094,1.47656 1.923411,0.61047 2.281249,1.4136 1.166016,2.92383 l 33.404301,43.17383 c 0.117,0.008 0.34543,-0.15289 0.43164,-0.0996 0.63821,0.39443 2.54065,0.8129 4.22851,0.92969 1.68783,0.11686 3.8157,1.0815 4.72656,2.14453 0.91083,1.06307 2.50645,2.4146 3.54688,3.0039 1.04039,0.58931 2.08857,1.66391 2.33008,2.38868 0.26114,0.78319 -0.0179,1.03616 -0.68946,0.62109 -0.62135,-0.38423 -1.13086,-0.24922 -1.13086,0.30078 0,1.62338 2.16036,2.47668 2.9668,1.17188 0.50325,-0.81427 1.35782,-0.23258 2.64649,1.80273 6.88497,10.87408 34.06283,34.04575 40.01562,34.11719 2.53501,0.0305 5.00948,-2.46099 3.41992,-3.44336 -1.62213,-1.00256 -1.30338,-4.56672 0.35157,-3.93164 0.76936,0.29522 1.69538,0.0562 2.05859,-0.53125 0.3631,-0.58749 1.13777,-1.06836 1.72266,-1.06836 0.67468,0 0.61312,0.54476 -0.16993,1.48828 -1.5583,1.87759 -0.4906,4.91051 1.46485,4.16016 0.80273,-0.30796 1.69234,-0.18458 1.97656,0.27539 0.95902,1.55176 11.0098,4.37156 16.04687,4.50195 2.75003,0.0712 5.58987,0.49889 6.31055,0.94922 1.56745,0.97942 7.40596,-1.2171 6.61914,-2.49024 -0.30058,-0.48616 -0.14868,-0.88281 0.33789,-0.88281 1.14131,0 4.65103,3.85535 6.14258,6.74805 0.63806,1.23753 1.57979,2.25195 2.0918,2.25195 1.37352,0 -4.73292,-8.77554 -9.95899,-14.31055 -2.49773,-2.64544 -4.96053,-5.71245 -5.47265,-6.81445 -0.51213,-1.10203 -2.53714,-3.68616 -4.5,-5.74219 -6.00424,-6.28924 -12.07032,-13.49126 -12.07032,-14.33398 0,-0.43964 0.46933,-0.79883 1.04102,-0.79883 0.60049,0 0.49468,-0.59292 -0.25,-1.40234 -0.70919,-0.77099 -1.43974,-0.99584 -1.62305,-0.5 -0.58276,1.5761 -2.00959,0.97237 -2.67773,-1.13281 -0.35505,-1.11863 -1.42213,-2.80612 -2.37109,-3.75 -0.94897,-0.9439 -6.49178,-7.33985 -12.31641,-14.21485 -5.82463,-6.875 -12.4757,-14.30001 -14.78125,-16.5 -2.30551,-2.19999 -6.44247,-6.58321 -9.19336,-9.73828 l -5.00195,-5.73633 -29.66016,-33.050779 -7.36328,-8.238282 C 99.83103,74.975113 94.732068,69.022868 92.548828,66.277344 88.481017,61.161867 67.52961,39.106846 56.308594,28.128906 51.666003,23.586727 47.592202,21.119865 44.871094,21.085938 Z m 15.207031,-5.316407 c -0.05161,0.05162 0.25111,0.45698 0.873047,1.25 0.754843,0.962495 1.542353,1.75 1.75,1.75 0.823034,0 0.2927,-0.822512 -1.373047,-2.128906 -0.793019,-0.621921 -1.198386,-0.922713 -1.25,-0.871094 z M 177.27359,174.24201 c 0.18142,-0.0797 0.43011,-0.045 0.70508,0.1251 0.54999,0.33978 1.00002,0.81789 1.00002,1.06053 0,0.24265 -0.45003,0.44141 -1.00002,0.44141 -0.54996,0 -0.99999,-0.47807 -0.99999,-1.06057 0,-0.29102 0.11376,-0.48646 0.2948,-0.5664 z"
        transform="matrix(0.26458333,0,0,0.26458333,66.126662,117.40914)" />
      <path
        style="fill:none;stroke-width:16.40416718;stroke-linecap:butt;stroke-linejoin:miter;stroke-miterlimit:4;stroke-opacity:1;"
        d="M 122.44487,177.03432 C 73.494813,123.49391 73.494813,123.49391 73.494813,123.49391" class="path-x-1" />
    </g>
  </svg>